<svg width="64" height="80" viewBox="0 0 64 80" fill="none" xmlns="http://www.w3.org/2000/svg">
<path d="M17.4531 30.7314H24.9941V38.2725C24.9941 38.8252 25.4414 39.2725 25.9941 39.2725H37.1445C37.6973 39.2725 38.1445 38.8252 38.1445 38.2725V30.7314H45.6855C46.2383 30.7314 46.6855 30.2842 46.6855 29.7314V18.5811C46.6855 18.0283 46.2383 17.5811 45.6855 17.5811H38.1445V10.04C38.1445 9.4873 37.6973 9.04004 37.1445 9.04004H25.9941C25.4414 9.04004 24.9941 9.4873 24.9941 10.04V17.5811H17.4531C16.9004 17.5811 16.4531 18.0283 16.4531 18.5811V29.7314C16.4531 30.2842 16.9004 30.7314 17.4531 30.7314ZM18.4531 19.5811H25.9941C26.5469 19.5811 26.9941 19.1338 26.9941 18.5811V11.04H36.1445V18.5811C36.1445 19.1338 36.5918 19.5811 37.1445 19.5811H44.6855V28.7314H37.1445C36.5918 28.7314 36.1445 29.1787 36.1445 29.7314V37.2725H26.9941V29.7314C26.9941 29.1787 26.5469 28.7314 25.9941 28.7314H18.4531V19.5811Z" fill="#CE2127"/>
<path d="M62.1387 0H1C0.447266 0 0 0.447266 0 1V79C0 79.5527 0.447266 80 1 80H62.1387C62.6914 80 63.1387 79.5527 63.1387 79V1C63.1387 0.447266 62.6914 0 62.1387 0ZM61.1387 78H2V2H61.1387V78Z" fill="#25398F"/>
<path d="M14.0029 48.9795H49.1357C49.6885 48.9795 50.1357 48.5322 50.1357 47.9795C50.1357 47.4268 49.6885 46.9795 49.1357 46.9795H14.0029C13.4502 46.9795 13.0029 47.4268 13.0029 47.9795C13.0029 48.5322 13.4502 48.9795 14.0029 48.9795Z" fill="#25398F"/>
<path d="M14.0029 58.3135H49.1357C49.6885 58.3135 50.1357 57.8662 50.1357 57.3135C50.1357 56.7607 49.6885 56.3135 49.1357 56.3135H14.0029C13.4502 56.3135 13.0029 56.7607 13.0029 57.3135C13.0029 57.8662 13.4502 58.3135 14.0029 58.3135Z" fill="#25398F"/>
<path d="M14.0029 67.6475H49.1357C49.6885 67.6475 50.1357 67.2002 50.1357 66.6475C50.1357 66.0947 49.6885 65.6475 49.1357 65.6475H14.0029C13.4502 65.6475 13.0029 66.0947 13.0029 66.6475C13.0029 67.2002 13.4502 67.6475 14.0029 67.6475Z" fill="#25398F"/>
</svg>
