<svg width="59" height="59" viewBox="0 0 59 59" fill="none" xmlns="http://www.w3.org/2000/svg">
<mask id="path-1-inside-1_1_11" fill="white">
<path d="M53 16H44.453C43.7281 14.9146 42.7752 14.0004 41.6607 13.3211C40.5462 12.6418 39.2969 12.2139 38 12.067V1C38 0.734784 37.8946 0.48043 37.7071 0.292893C37.5196 0.105357 37.2652 0 37 0H17C16.7348 0 16.4804 0.105357 16.2929 0.292893C16.1054 0.48043 16 0.734784 16 1V12.067C14.703 12.2135 13.4536 12.6413 12.339 13.3206C11.2244 13.9999 10.2716 14.9143 9.547 16H1C0.734784 16 0.48043 16.1054 0.292893 16.2929C0.105357 16.4804 0 16.7348 0 17V37C0 37.2652 0.105357 37.5196 0.292893 37.7071C0.48043 37.8946 0.734784 38 1 38H16V53C16 53.2652 16.1054 53.5196 16.2929 53.7071C16.4804 53.8946 16.7348 54 17 54H35.641C36.8364 55.25 38.2695 56.2485 39.8562 56.937C41.4428 57.6255 43.151 57.9901 44.8804 58.0094C46.6099 58.0286 48.3258 57.7022 49.9274 57.0493C51.529 56.3963 52.984 55.43 54.207 54.207C55.43 52.984 56.3963 51.529 57.0493 49.9274C57.7022 48.3258 58.0286 46.6099 58.0094 44.8804C57.9901 43.151 57.6255 41.4428 56.937 39.8562C56.2485 38.2695 55.25 36.8364 54 35.641V17C54 16.7348 53.8946 16.4804 53.7071 16.2929C53.5196 16.1054 53.2652 16 53 16ZM41.887 16H38V14.077C39.4666 14.2904 40.8276 14.9637 41.887 16ZM16 14.077V16H12.111C13.171 14.9633 14.5327 14.29 16 14.077ZM9 26C9.59334 26 10.1734 26.1759 10.6667 26.5056C11.1601 26.8352 11.5446 27.3038 11.7716 27.8519C11.9987 28.4001 12.0581 29.0033 11.9424 29.5853C11.8266 30.1672 11.5409 30.7018 11.1213 31.1213C10.7018 31.5409 10.1672 31.8266 9.58527 31.9424C9.00333 32.0581 8.40013 31.9987 7.85195 31.7716C7.30377 31.5446 6.83524 31.1601 6.50559 30.6667C6.17595 30.1734 6 29.5933 6 29C6 28.2044 6.31607 27.4413 6.87868 26.8787C7.44129 26.3161 8.20435 26 9 26ZM18 52V37C18 36.7348 17.8946 36.4804 17.7071 36.2929C17.5196 36.1054 17.2652 36 17 36H2V18H8.535C8.18608 18.962 8.00511 19.9767 8 21V24.1C6.78596 24.3478 5.70718 25.0376 4.9728 26.0356C4.23843 27.0336 3.90078 28.2687 4.02532 29.5015C4.14986 30.7343 4.72771 31.877 5.64685 32.7079C6.56598 33.5389 7.76092 33.999 9 33.999C10.2391 33.999 11.434 33.5389 12.3532 32.7079C13.2723 31.877 13.8501 30.7343 13.9747 29.5015C14.0992 28.2687 13.7616 27.0336 13.0272 26.0356C12.2928 25.0376 11.214 24.3478 10 24.1V21C10.004 19.96 10.2433 18.9344 10.7 18H17C17.2652 18 17.5196 17.8946 17.7071 17.7071C17.8946 17.5196 18 17.2652 18 17V2H36V17C36 17.2652 36.1054 17.5196 36.2929 17.7071C36.4804 17.8946 36.7348 18 37 18H43.315C43.5029 18.3899 43.6526 18.7972 43.762 19.216C42.9617 19.4754 42.2637 19.9809 41.7677 20.6604C41.2718 21.3399 41.0031 22.1587 41 23V29C41 29.2652 41.1054 29.5196 41.2929 29.7071C41.4804 29.8946 41.7348 30 42 30H43C43.2652 30 43.5196 29.8946 43.7071 29.7071C43.8946 29.5196 44 29.2652 44 29C44 28.7348 43.8946 28.4804 43.7071 28.2929C43.5196 28.1054 43.2652 28 43 28V23C43 22.4696 43.2107 21.9609 43.5858 21.5858C43.9609 21.2107 44.4696 21 45 21C45.5304 21 46.0391 21.2107 46.4142 21.5858C46.7893 21.9609 47 22.4696 47 23V28C46.7348 28 46.4804 28.1054 46.2929 28.2929C46.1054 28.4804 46 28.7348 46 29C46 29.2652 46.1054 29.5196 46.2929 29.7071C46.4804 29.8946 46.7348 30 47 30H48C48.2652 30 48.5196 29.8946 48.7071 29.7071C48.8946 29.5196 49 29.2652 49 29V23C48.9985 22.0766 48.6782 21.1821 48.093 20.4678C47.5079 19.7535 46.694 19.2632 45.789 19.08C45.7093 18.7137 45.6061 18.353 45.48 18H52V34.063C49.5073 32.4598 46.5409 31.7579 43.594 32.0742C40.6472 32.3905 37.8973 33.7059 35.8016 35.8016C33.7059 37.8973 32.3905 40.6472 32.0742 43.594C31.7579 46.5409 32.4598 49.5073 34.063 52H18ZM56 45C56 47.1756 55.3549 49.3023 54.1462 51.1113C52.9375 52.9202 51.2195 54.3301 49.2095 55.1627C47.1995 55.9952 44.9878 56.2131 42.854 55.7886C40.7202 55.3642 38.7602 54.3166 37.2218 52.7782C35.6834 51.2398 34.6358 49.2798 34.2114 47.146C33.7869 45.0122 34.0048 42.8005 34.8373 40.7905C35.6699 38.7805 37.0798 37.0625 38.8887 35.8538C40.6977 34.6451 42.8244 34 45 34C47.9163 34.0034 50.7122 35.1635 52.7744 37.2256C54.8365 39.2878 55.9966 42.0837 56 45Z"/>
</mask>
<path d="M53 16H44.453C43.7281 14.9146 42.7752 14.0004 41.6607 13.3211C40.5462 12.6418 39.2969 12.2139 38 12.067V1C38 0.734784 37.8946 0.48043 37.7071 0.292893C37.5196 0.105357 37.2652 0 37 0H17C16.7348 0 16.4804 0.105357 16.2929 0.292893C16.1054 0.48043 16 0.734784 16 1V12.067C14.703 12.2135 13.4536 12.6413 12.339 13.3206C11.2244 13.9999 10.2716 14.9143 9.547 16H1C0.734784 16 0.48043 16.1054 0.292893 16.2929C0.105357 16.4804 0 16.7348 0 17V37C0 37.2652 0.105357 37.5196 0.292893 37.7071C0.48043 37.8946 0.734784 38 1 38H16V53C16 53.2652 16.1054 53.5196 16.2929 53.7071C16.4804 53.8946 16.7348 54 17 54H35.641C36.8364 55.25 38.2695 56.2485 39.8562 56.937C41.4428 57.6255 43.151 57.9901 44.8804 58.0094C46.6099 58.0286 48.3258 57.7022 49.9274 57.0493C51.529 56.3963 52.984 55.43 54.207 54.207C55.43 52.984 56.3963 51.529 57.0493 49.9274C57.7022 48.3258 58.0286 46.6099 58.0094 44.8804C57.9901 43.151 57.6255 41.4428 56.937 39.8562C56.2485 38.2695 55.25 36.8364 54 35.641V17C54 16.7348 53.8946 16.4804 53.7071 16.2929C53.5196 16.1054 53.2652 16 53 16ZM41.887 16H38V14.077C39.4666 14.2904 40.8276 14.9637 41.887 16ZM16 14.077V16H12.111C13.171 14.9633 14.5327 14.29 16 14.077ZM9 26C9.59334 26 10.1734 26.1759 10.6667 26.5056C11.1601 26.8352 11.5446 27.3038 11.7716 27.8519C11.9987 28.4001 12.0581 29.0033 11.9424 29.5853C11.8266 30.1672 11.5409 30.7018 11.1213 31.1213C10.7018 31.5409 10.1672 31.8266 9.58527 31.9424C9.00333 32.0581 8.40013 31.9987 7.85195 31.7716C7.30377 31.5446 6.83524 31.1601 6.50559 30.6667C6.17595 30.1734 6 29.5933 6 29C6 28.2044 6.31607 27.4413 6.87868 26.8787C7.44129 26.3161 8.20435 26 9 26ZM18 52V37C18 36.7348 17.8946 36.4804 17.7071 36.2929C17.5196 36.1054 17.2652 36 17 36H2V18H8.535C8.18608 18.962 8.00511 19.9767 8 21V24.1C6.78596 24.3478 5.70718 25.0376 4.9728 26.0356C4.23843 27.0336 3.90078 28.2687 4.02532 29.5015C4.14986 30.7343 4.72771 31.877 5.64685 32.7079C6.56598 33.5389 7.76092 33.999 9 33.999C10.2391 33.999 11.434 33.5389 12.3532 32.7079C13.2723 31.877 13.8501 30.7343 13.9747 29.5015C14.0992 28.2687 13.7616 27.0336 13.0272 26.0356C12.2928 25.0376 11.214 24.3478 10 24.1V21C10.004 19.96 10.2433 18.9344 10.7 18H17C17.2652 18 17.5196 17.8946 17.7071 17.7071C17.8946 17.5196 18 17.2652 18 17V2H36V17C36 17.2652 36.1054 17.5196 36.2929 17.7071C36.4804 17.8946 36.7348 18 37 18H43.315C43.5029 18.3899 43.6526 18.7972 43.762 19.216C42.9617 19.4754 42.2637 19.9809 41.7677 20.6604C41.2718 21.3399 41.0031 22.1587 41 23V29C41 29.2652 41.1054 29.5196 41.2929 29.7071C41.4804 29.8946 41.7348 30 42 30H43C43.2652 30 43.5196 29.8946 43.7071 29.7071C43.8946 29.5196 44 29.2652 44 29C44 28.7348 43.8946 28.4804 43.7071 28.2929C43.5196 28.1054 43.2652 28 43 28V23C43 22.4696 43.2107 21.9609 43.5858 21.5858C43.9609 21.2107 44.4696 21 45 21C45.5304 21 46.0391 21.2107 46.4142 21.5858C46.7893 21.9609 47 22.4696 47 23V28C46.7348 28 46.4804 28.1054 46.2929 28.2929C46.1054 28.4804 46 28.7348 46 29C46 29.2652 46.1054 29.5196 46.2929 29.7071C46.4804 29.8946 46.7348 30 47 30H48C48.2652 30 48.5196 29.8946 48.7071 29.7071C48.8946 29.5196 49 29.2652 49 29V23C48.9985 22.0766 48.6782 21.1821 48.093 20.4678C47.5079 19.7535 46.694 19.2632 45.789 19.08C45.7093 18.7137 45.6061 18.353 45.48 18H52V34.063C49.5073 32.4598 46.5409 31.7579 43.594 32.0742C40.6472 32.3905 37.8973 33.7059 35.8016 35.8016C33.7059 37.8973 32.3905 40.6472 32.0742 43.594C31.7579 46.5409 32.4598 49.5073 34.063 52H18ZM56 45C56 47.1756 55.3549 49.3023 54.1462 51.1113C52.9375 52.9202 51.2195 54.3301 49.2095 55.1627C47.1995 55.9952 44.9878 56.2131 42.854 55.7886C40.7202 55.3642 38.7602 54.3166 37.2218 52.7782C35.6834 51.2398 34.6358 49.2798 34.2114 47.146C33.7869 45.0122 34.0048 42.8005 34.8373 40.7905C35.6699 38.7805 37.0798 37.0625 38.8887 35.8538C40.6977 34.6451 42.8244 34 45 34C47.9163 34.0034 50.7122 35.1635 52.7744 37.2256C54.8365 39.2878 55.9966 42.0837 56 45Z" fill="#25398F" stroke="#25398F" stroke-width="2" mask="url(#path-1-inside-1_1_11)"/>
<path d="M45.5019 50.5V49.833V49.4495L45.8724 49.3501C46.0317 49.3073 46.1872 49.2513 46.337 49.1824C46.6858 49.0064 46.9792 48.7373 47.1847 48.4049C47.3914 48.0703 47.5009 47.6848 47.5009 47.2915C47.5009 46.8982 47.3914 46.5127 47.1847 46.1781C46.9782 45.8439 46.6815 45.5734 46.3293 45.3972C46.3293 45.3972 46.3293 45.3972 46.3293 45.3972L44.1173 44.2912L44.1169 44.291C43.9315 44.1981 43.7755 44.0553 43.6665 43.8788C43.5576 43.7023 43.4998 43.499 43.4998 43.2915C43.4998 43.084 43.5576 42.8807 43.6665 42.7042C43.7755 42.5277 43.9315 42.3849 44.1169 42.292L44.1179 42.2915C44.3916 42.1551 44.6932 42.0841 44.999 42.0841C45.3047 42.0841 45.6063 42.1551 45.88 42.2915L45.8808 42.2919L46.7754 42.7397C46.7754 42.7397 46.7755 42.7397 46.7755 42.7398C46.8343 42.7691 46.8982 42.7865 46.9637 42.7912C47.0292 42.7958 47.0951 42.7875 47.1574 42.7667C47.2197 42.7459 47.2774 42.713 47.327 42.6699C47.3766 42.6268 47.4173 42.5744 47.4466 42.5156C47.476 42.4568 47.4935 42.3928 47.4981 42.3273C47.5028 42.2617 47.4944 42.1959 47.4736 42.1335C47.4528 42.0712 47.4199 42.0136 47.3768 41.964C47.3338 41.9143 47.2813 41.8737 47.2225 41.8443L47.2223 41.8442L46.3356 41.4008C46.1853 41.3319 46.0294 41.2758 45.8697 41.233L45.499 41.1338V40.75V39.5H44.5V40.751V41.1346L44.1295 41.2339C43.9702 41.2767 43.8147 41.3327 43.6649 41.4016C43.3161 41.5776 43.0227 41.8466 42.8172 42.1791C42.6105 42.5137 42.501 42.8992 42.501 43.2925C42.501 43.6858 42.6105 44.0713 42.8172 44.4059C43.024 44.7405 43.3198 45.0109 43.6716 45.1868L45.8836 46.2928L45.884 46.293C46.0694 46.3859 46.2254 46.5287 46.3344 46.7052C46.4433 46.8817 46.5011 47.085 46.5011 47.2925C46.5011 47.5 46.4433 47.7033 46.3344 47.8798C46.2254 48.0563 46.0694 48.1991 45.884 48.292L45.8823 48.2929C45.6085 48.4287 45.3071 48.4994 45.0014 48.4994C44.6958 48.4994 44.3944 48.4287 44.1206 48.2929L44.1193 48.2922L43.2255 47.8453L45.5019 50.5ZM45.5019 50.5H44.5019V49.834V49.4503L44.1313 49.351C43.9714 49.3082 43.8155 49.252 43.6651 49.1831L42.7784 48.7407C42.6596 48.6814 42.5693 48.5773 42.5273 48.4515C42.4853 48.3256 42.495 48.1881 42.5543 48.0694C42.6136 47.9507 42.7176 47.8604 42.8435 47.8183C42.9693 47.7763 43.1067 47.786 43.2253 47.8452L45.5019 50.5ZM45.66 46.74C45.7625 46.7914 45.8487 46.8703 45.9089 46.9678C45.9692 47.0654 46.0011 47.1778 46.0011 47.2925C46.0011 47.4072 45.9692 47.5196 45.9089 47.6172C45.8487 47.7147 45.7625 47.7936 45.66 47.845C45.4553 47.9466 45.2299 47.9994 45.0014 47.9994L45.66 46.74Z" fill="#25398F" stroke="#CE2127"/>
<path d="M45 52.5H45.0006C46.9889 52.4977 48.895 51.7069 50.301 50.301C51.7069 48.895 52.4977 46.9888 52.5 45.0006V45C52.5 43.5166 52.0601 42.0666 51.236 40.8332C50.4119 39.5999 49.2406 38.6386 47.8701 38.0709C46.4997 37.5032 44.9917 37.3547 43.5368 37.6441C42.082 37.9335 40.7456 38.6478 39.6967 39.6967C38.6478 40.7456 37.9335 42.082 37.6441 43.5368C37.3547 44.9917 37.5033 46.4997 38.0709 47.8701C38.6386 49.2406 39.5999 50.4119 40.8332 51.236C42.0666 52.0601 43.5166 52.5 45 52.5ZM40.2777 37.9325C41.6754 36.9986 43.3187 36.5001 44.9997 36.5C47.2532 36.5028 49.4137 37.3993 51.0072 38.9928C52.6008 40.5864 53.4973 42.747 53.5 45.0006C53.4999 46.6815 53.0014 48.3247 52.0675 49.7223C51.1335 51.1202 49.806 52.2096 48.2528 52.853C46.6996 53.4963 44.9906 53.6646 43.3417 53.3367C41.6929 53.0087 40.1783 52.1992 38.9896 51.0104C37.8009 49.8217 36.9913 48.3071 36.6633 46.6583C36.3354 45.0094 36.5037 43.3004 37.147 41.7472C37.7904 40.194 38.8798 38.8665 40.2777 37.9325Z" fill="#25398F" stroke="#CE2127"/>
<path d="M10 29C10 29.5523 9.55228 30 9 30C8.44772 30 8 29.5523 8 29C8 28.4477 8.44772 28 9 28C9.55228 28 10 28.4477 10 29Z" fill="#25398F" stroke="#25398F"/>
</svg>
