<svg width="96" height="90" viewBox="0 0 96 90" fill="none" xmlns="http://www.w3.org/2000/svg">
<path d="M85.7084 34.2001C85.1084 36.2001 83.8084 39.2001 82.3084 42.5001C83.2084 44.7001 83.1084 47.6001 81.5084 50.8001C81.1084 51.6001 80.6084 52.4001 80.0084 53.2001C78.5084 55.2001 76.5084 57.4001 74.3084 59.8001C74.2084 60.0001 74.0084 60.1001 73.8084 60.3001C73.3084 60.9001 72.4084 61.1 71.7084 60.6C70.9084 60.1 70.7084 58.9001 71.4084 58.2001C71.6084 58 71.7084 57.8001 71.9084 57.6001C74.7084 54.5001 77.4084 51.6001 78.6084 49.3001C80.7084 45.1001 79.3084 42.4001 77.3084 41.2001C75.6084 40.2001 73.3084 40.2001 72.0084 42.1001C70.2084 44.8001 67.7084 47.7001 65.2084 50.4001C62.4084 53.6001 59.6084 57 58.0084 59.6C56.2084 62.6 53.9084 69.6 53.5084 77.1C53.3084 80.7 53.2084 84.9001 53.1084 87.4001C53.1084 88.7001 54.1084 89.7001 55.4084 89.7001H70.1084C71.4084 89.7001 72.4084 88.7001 72.4084 87.4001V83.2001C72.4084 82.2001 72.9084 81.3001 73.7084 80.7001C78.9084 77.1001 83.8084 72.8 86.6084 69.6C92.6084 62.6 94.8084 42.0001 95.1084 35.8001C95.3084 29.9001 87.5084 28.5001 85.7084 34.2001Z" fill="#25398F"/>
<path d="M37.0084 59.7C35.4084 57 32.6084 53.7 29.8084 50.5C27.4084 47.7 24.8084 44.9 23.0084 42.2C21.7084 40.3 19.4084 40.3 17.7084 41.3C15.7084 42.5 14.2084 45.3 16.4084 49.4C17.5084 51.6 20.2084 54.6 23.1084 57.7C23.3084 57.9 23.4084 58.1 23.6084 58.3C24.3084 59 24.1084 60.2 23.3084 60.7C22.6084 61.1 21.7084 60.9 21.2084 60.4C21.0084 60.2 20.9084 60.1 20.7084 59.9C18.5084 57.5 16.5084 55.3 15.0084 53.3C14.4084 52.5 13.9084 51.7 13.5084 50.9C11.8084 47.7 11.8084 44.8 12.7084 42.6C11.2084 39.3 9.90843 36.3 9.30842 34.3C7.50842 28.5 -0.291575 29.9 0.00842512 36.1C0.308425 42.2 2.50842 62.8 8.50842 69.8C11.2084 73 16.2084 77.3 21.4084 80.9C22.2084 81.5 22.7084 82.4 22.7084 83.4V87.6C22.7084 88.9 23.7084 89.9 25.0084 89.9H39.7084C41.0084 89.9 42.0084 88.9 42.0084 87.6C41.9084 85.1 41.8084 80.9 41.6084 77.3C41.0084 69.8 38.7084 62.7 37.0084 59.7Z" fill="#25398F"/>
<path d="M69.8084 22.3C69.8084 10 59.8084 0 47.5084 0C35.2084 0 25.2084 10 25.2084 22.3C25.2084 34.6 35.2084 44.6 47.5084 44.6C59.8084 44.6 69.8084 34.6 69.8084 22.3ZM54.7084 25.2H50.4084V29.5C50.4084 31.1 49.1084 32.4 47.5084 32.4C45.9084 32.4 44.6084 31.1 44.6084 29.5V25.2H40.3084C38.7084 25.2 37.4084 23.9 37.4084 22.3C37.4084 20.7 38.7084 19.4 40.3084 19.4H44.6084V15.1C44.6084 13.5 45.9084 12.2 47.5084 12.2C49.1084 12.2 50.4084 13.5 50.4084 15.1V19.4H54.7084C56.3084 19.4 57.6084 20.7 57.6084 22.3C57.6084 23.9 56.3084 25.2 54.7084 25.2Z" fill="#CE2127"/>
</svg>
