<svg width="54" height="54" viewBox="0 0 54 54" fill="none" xmlns="http://www.w3.org/2000/svg">
<path d="M43 30C45.4833 29.9996 47.9139 30.7159 50 32.063V16H43.48C43.6061 16.353 43.7093 16.7137 43.789 17.08C44.694 17.2632 45.5079 17.7535 46.093 18.4678C46.6782 19.1821 46.9985 20.0766 47 21V27C47 27.2652 46.8946 27.5196 46.7071 27.7071C46.5196 27.8946 46.2652 28 46 28H45C44.7348 28 44.4804 27.8946 44.2929 27.7071C44.1054 27.5196 44 27.2652 44 27C44 26.7348 44.1054 26.4804 44.2929 26.2929C44.4804 26.1054 44.7348 26 45 26V21C45 20.4696 44.7893 19.9609 44.4142 19.5858C44.0391 19.2107 43.5304 19 43 19C42.4696 19 41.9609 19.2107 41.5858 19.5858C41.2107 19.9609 41 20.4696 41 21V26C41.2652 26 41.5196 26.1054 41.7071 26.2929C41.8946 26.4804 42 26.7348 42 27C42 27.2652 41.8946 27.5196 41.7071 27.7071C41.5196 27.8946 41.2652 28 41 28H40C39.7348 28 39.4804 27.8946 39.2929 27.7071C39.1054 27.5196 39 27.2652 39 27V21C39.0031 20.1587 39.2718 19.3399 39.7677 18.6604C40.2637 17.9809 40.9617 17.4754 41.762 17.216C41.6526 16.7972 41.5029 16.3899 41.315 16H35C34.7348 16 34.4804 15.8946 34.2929 15.7071C34.1054 15.5196 34 15.2652 34 15V0H16V15C16 15.2652 15.8946 15.5196 15.7071 15.7071C15.5196 15.8946 15.2652 16 15 16H8.7C8.24334 16.9344 8.00403 17.96 8 19V22.1C9.21404 22.3478 10.2928 23.0376 11.0272 24.0356C11.7616 25.0336 12.0992 26.2687 11.9747 27.5015C11.8501 28.7343 11.2723 29.877 10.3532 30.7079C9.43402 31.5389 8.23908 31.999 7 31.999C5.76092 31.999 4.56598 31.5389 3.64685 30.7079C2.72771 29.877 2.14986 28.7343 2.02532 27.5015C1.90078 26.2687 2.23843 25.0336 2.9728 24.0356C3.70718 23.0376 4.78596 22.3478 6 22.1V19C6.00511 17.9767 6.18608 16.962 6.535 16H0V34H15C15.2652 34 15.5196 34.1054 15.7071 34.2929C15.8946 34.4804 16 34.7348 16 35V50H32.063C30.801 48.0379 30.0912 45.772 30.0082 43.4406C29.9253 41.1092 30.4722 38.7985 31.5915 36.7517C32.7108 34.7049 34.3611 32.9976 36.3687 31.8095C38.3764 30.6213 40.6671 29.9962 43 30Z" fill="#25398F"/>
<path d="M4 27C4 27.5933 4.17595 28.1734 4.50559 28.6667C4.83524 29.1601 5.30377 29.5446 5.85195 29.7716C6.40013 29.9987 7.00333 30.0581 7.58527 29.9424C8.16721 29.8266 8.70176 29.5409 9.12132 29.1213C9.54088 28.7018 9.8266 28.1672 9.94236 27.5853C10.0581 27.0033 9.9987 26.4001 9.77164 25.8519C9.54458 25.3038 9.16006 24.8352 8.66671 24.5056C8.17336 24.1759 7.59334 24 7 24C6.20435 24 5.44129 24.3161 4.87868 24.8787C4.31607 25.4413 4 26.2044 4 27ZM7 25.5C7.29667 25.5 7.58668 25.588 7.83335 25.7528C8.08003 25.9176 8.27229 26.1519 8.38582 26.426C8.49935 26.7001 8.52906 27.0017 8.47118 27.2926C8.4133 27.5836 8.27044 27.8509 8.06066 28.0607C7.85088 28.2704 7.58361 28.4133 7.29264 28.4712C7.00166 28.5291 6.70006 28.4994 6.42597 28.3858C6.15189 28.2723 5.91762 28.08 5.7528 27.8334C5.58797 27.5867 5.5 27.2967 5.5 27C5.5 26.6022 5.65804 26.2206 5.93934 25.9393C6.22064 25.658 6.60218 25.5 7 25.5Z" fill="#25398F"/>
<path d="M36 12.077V14H39.887C38.8276 12.9637 37.4666 12.2904 36 12.077Z" fill="#25398F"/>
<path d="M14 12.077C12.5327 12.29 11.1709 12.9633 10.111 14H14V12.077Z" fill="#25398F"/>
<path d="M43 36C41.6155 36 40.2622 36.4105 39.111 37.1797C37.9599 37.9489 37.0627 39.0421 36.5328 40.3212C36.003 41.6003 35.8644 43.0078 36.1345 44.3656C36.4046 45.7235 37.0713 46.9708 38.0503 47.9497C39.0292 48.9287 40.2765 49.5954 41.6344 49.8655C42.9922 50.1356 44.3997 49.997 45.6788 49.4672C46.9579 48.9373 48.0511 48.0401 48.8203 46.889C49.5895 45.7378 50 44.3845 50 43C49.9979 41.1441 49.2597 39.3649 47.9474 38.0526C46.6351 36.7403 44.8559 36.0021 43 36ZM44.552 47.633C44.374 47.7153 44.1894 47.7822 44 47.833V49H42V47.833C41.8103 47.7822 41.6253 47.7153 41.447 47.633L40.553 47.187C40.3156 47.0684 40.1351 46.8605 40.0511 46.6088C39.9671 46.3571 39.9865 46.0824 40.105 45.845C40.2236 45.6076 40.4315 45.4271 40.6832 45.3431C40.9349 45.259 41.2096 45.2784 41.447 45.397L42.341 45.844C42.5457 45.9456 42.771 45.9984 42.9995 45.9984C43.228 45.9984 43.4534 45.9456 43.658 45.844C43.7605 45.7926 43.8467 45.7137 43.907 45.6162C43.9672 45.5186 43.9991 45.4062 43.9991 45.2915C43.9991 45.1768 43.9672 45.0644 43.907 44.9668C43.8467 44.8693 43.7605 44.7904 43.658 44.739L41.446 43.633C41.0112 43.4155 40.6455 43.0813 40.39 42.6678C40.1344 42.2542 39.999 41.7777 39.999 41.2915C39.999 40.8053 40.1344 40.3288 40.39 39.9152C40.6455 39.5017 41.0112 39.1675 41.446 38.95C41.624 38.8677 41.8086 38.8008 41.998 38.75V37H43.998V38.751C44.1877 38.8018 44.3727 38.8687 44.551 38.951L45.445 39.398C45.5625 39.4567 45.6674 39.538 45.7535 39.6372C45.8396 39.7364 45.9053 39.8516 45.9469 39.9762C45.9885 40.1008 46.0052 40.2324 45.9959 40.3635C45.9867 40.4945 45.9517 40.6225 45.893 40.74C45.8343 40.8575 45.753 40.9624 45.6538 41.0485C45.5546 41.1346 45.4394 41.2003 45.3148 41.2419C45.0631 41.326 44.7884 41.3066 44.551 41.188L43.656 40.74C43.4516 40.6381 43.2264 40.5851 42.998 40.5851C42.7696 40.5851 42.5444 40.6381 42.34 40.74C42.2375 40.7914 42.1513 40.8703 42.091 40.9678C42.0308 41.0654 41.9989 41.1778 41.9989 41.2925C41.9989 41.4072 42.0308 41.5196 42.091 41.6172C42.1513 41.7147 42.2375 41.7936 42.34 41.845L44.552 42.951C44.9868 43.1685 45.3525 43.5027 45.608 43.9162C45.8636 44.3298 45.999 44.8063 45.999 45.2925C45.999 45.7787 45.8636 46.2552 45.608 46.6688C45.3525 47.0823 44.9868 47.4155 44.552 47.633Z" fill="#CE2127"/>
<path d="M43 32C40.8244 32 38.6977 32.6451 36.8887 33.8538C35.0798 35.0625 33.6699 36.7805 32.8373 38.7905C32.0048 40.8005 31.7869 43.0122 32.2114 45.146C32.6358 47.2798 33.6835 49.2398 35.2218 50.7782C36.7602 52.3166 38.7202 53.3642 40.854 53.7886C42.9878 54.2131 45.1995 53.9952 47.2095 53.1627C49.2195 52.3301 50.9375 50.9202 52.1462 49.1113C53.3549 47.3023 54 45.1756 54 43C53.9966 40.0837 52.8365 37.2878 50.7744 35.2256C48.7122 33.1635 45.9163 32.0034 43 32ZM43 52C41.22 52 39.4799 51.4722 37.9999 50.4832C36.5198 49.4943 35.3663 48.0887 34.6851 46.4441C34.0039 44.7996 33.8257 42.99 34.1729 41.2442C34.5202 39.4984 35.3774 37.8947 36.636 36.636C37.8947 35.3774 39.4984 34.5202 41.2442 34.1729C42.99 33.8257 44.7996 34.0039 46.4442 34.6851C48.0887 35.3663 49.4943 36.5198 50.4832 37.9999C51.4722 39.4799 52 41.22 52 43C51.9971 45.3861 51.0479 47.6735 49.3608 49.3607C47.6736 51.0479 45.3861 51.9971 43 52Z" fill="#CE2127"/>
</svg>
