<svg width="379" height="453" viewBox="0 0 379 453" fill="none" xmlns="http://www.w3.org/2000/svg">
<path d="M182.3 135V164.7H207.9V135C207.9 133 209.5 131.4 211.5 131.4H241.2V105.9H211.5C209.5 105.9 207.9 104.3 207.9 102.3V72.6H182.3V102.3C182.3 104.3 180.7 105.9 178.7 105.9H149V131.4H178.7C180.7 131.4 182.3 133 182.3 135Z" fill="#CE2127"/>
<path d="M51 405.3V50.7H0V452.5H320.2V409H54.6C52.6 408.9 51 407.3 51 405.3Z" fill="#25398F"/>
<path d="M302.3 5.09998V77.4H374.7L302.3 5.09998Z" fill="#25398F"/>
<path d="M298.7 84.6C296.7 84.6 295.1 83 295.1 81V0H58.1V47.1V401.8H323.8H378.3V84.6H298.7ZM141.9 102.3C141.9 100.3 143.5 98.7 145.5 98.7H175.2V69C175.2 67 176.8 65.4 178.8 65.4H211.6C213.6 65.4 215.2 67 215.2 69V98.7H244.9C246.9 98.7 248.5 100.3 248.5 102.3V135C248.5 137 246.9 138.6 244.9 138.6H215.2V168.3C215.2 170.3 213.6 171.9 211.6 171.9H178.8C176.8 171.9 175.2 170.3 175.2 168.3V138.6H145.5C143.5 138.6 141.9 137 141.9 135V102.3ZM291.3 336.5H102.3C100.3 336.5 98.7 334.9 98.7 332.9C98.7 330.9 100.3 329.3 102.3 329.3H291.3C293.3 329.3 294.9 330.9 294.9 332.9C294.9 334.9 293.2 336.5 291.3 336.5ZM316.3 292.5H102.3C100.3 292.5 98.7 290.9 98.7 288.9C98.7 286.9 100.3 285.3 102.3 285.3H316.3C318.3 285.3 319.9 286.9 319.9 288.9C319.9 290.9 318.3 292.5 316.3 292.5ZM98.7 244.9C98.7 242.9 100.3 241.3 102.3 241.3H260.6C262.6 241.3 264.2 242.9 264.2 244.9C264.2 246.9 262.6 248.5 260.6 248.5H102.3C100.3 248.5 98.7 246.9 98.7 244.9ZM316.3 204.5H102.3C100.3 204.5 98.7 202.9 98.7 200.9C98.7 198.9 100.3 197.3 102.3 197.3H316.3C318.3 197.3 319.9 198.9 319.9 200.9C319.9 202.9 318.3 204.5 316.3 204.5Z" fill="#25398F"/>
</svg>
