<svg width="58" height="80" viewBox="0 0 58 80" fill="none" xmlns="http://www.w3.org/2000/svg">
<path d="M22.276 29.328H27.895V34.947C27.895 35.5 28.342 35.947 28.895 35.947C29.448 35.947 29.895 35.5 29.895 34.947V29.328H35.514C36.067 29.328 36.514 28.881 36.514 28.328C36.514 27.775 36.067 27.328 35.514 27.328H29.895V21.71C29.895 21.157 29.448 20.71 28.895 20.71C28.342 20.71 27.895 21.157 27.895 21.71V27.328H22.276C21.723 27.328 21.276 27.775 21.276 28.328C21.276 28.881 21.724 29.328 22.276 29.328Z" fill="#CE2127"/>
<path d="M15.505 44.502C15.505 45.055 15.952 45.502 16.505 45.502H41.619C42.172 45.502 42.619 45.055 42.619 44.502C42.619 43.949 42.172 43.502 41.619 43.502H16.505C15.952 43.502 15.505 43.949 15.505 44.502Z" fill="#25398F"/>
<path d="M41.619 60.351H16.505C15.952 60.351 15.505 60.798 15.505 61.351C15.505 61.904 15.952 62.351 16.505 62.351H41.619C42.172 62.351 42.619 61.904 42.619 61.351C42.619 60.798 42.172 60.351 41.619 60.351Z" fill="#25398F"/>
<path d="M41.619 49.182H16.505C15.952 49.182 15.505 49.629 15.505 50.182C15.505 50.735 15.952 51.182 16.505 51.182H41.619C42.172 51.182 42.619 50.735 42.619 50.182C42.619 49.629 42.172 49.182 41.619 49.182Z" fill="#25398F"/>
<path d="M41.619 54.863H16.505C15.952 54.863 15.505 55.31 15.505 55.863C15.505 56.416 15.952 56.863 16.505 56.863H41.619C42.172 56.863 42.619 56.416 42.619 55.863C42.619 55.31 42.172 54.863 41.619 54.863Z" fill="#25398F"/>
<path d="M1 80H56.79C57.343 80 57.79 79.553 57.79 79V10.297C57.79 9.744 57.343 9.297 56.79 9.297H41.424V7.269C41.424 6.716 40.977 6.269 40.424 6.269H34.68V5.785C34.68 2.595 32.085 0 28.896 0C25.706 0 23.111 2.595 23.111 5.785V6.269H17.367C16.814 6.269 16.367 6.716 16.367 7.269V9.297H1C0.447 9.297 0 9.744 0 10.297V78.999C0 79.552 0.447 80 1 80ZM18.366 8.269H24.11C24.663 8.269 25.11 7.822 25.11 7.269V5.785C25.11 3.698 26.808 2 28.895 2C30.982 2 32.679 3.698 32.679 5.785V7.269C32.679 7.822 33.126 8.269 33.679 8.269H39.423V13.199H18.366V8.269ZM17.366 15.199H40.424C40.977 15.199 41.424 14.752 41.424 14.199V11.298H48.054V69.35H9.737V11.297H16.366V14.198C16.366 14.752 16.814 15.199 17.366 15.199ZM2 11.297H7.737V70.349C7.737 70.902 8.184 71.349 8.737 71.349H49.054C49.607 71.349 50.054 70.902 50.054 70.349V11.297H55.79V77.999H2V11.297Z" fill="#25398F"/>
<path d="M28.8951 6.82901C29.5948 6.82901 30.1621 6.26176 30.1621 5.56201C30.1621 4.86227 29.5948 4.29501 28.8951 4.29501C28.1953 4.29501 27.6281 4.86227 27.6281 5.56201C27.6281 6.26176 28.1953 6.82901 28.8951 6.82901Z" fill="#25398F"/>
</svg>
