<svg width="89" height="129" viewBox="0 0 89 129" fill="none" xmlns="http://www.w3.org/2000/svg">
<path d="M17.0148 38.0099H71.009C71.5394 38.0099 72.048 37.7992 72.4231 37.4242C72.7981 37.0491 73.0088 36.5405 73.0088 36.0101C73.0088 35.4798 72.7981 34.9711 72.4231 34.5961C72.048 34.2211 71.5394 34.0104 71.009 34.0104H17.0148C16.4845 34.0104 15.9758 34.2211 15.6008 34.5961C15.2258 34.9711 15.0151 35.4798 15.0151 36.0101C15.0151 36.5405 15.2258 37.0491 15.6008 37.4242C15.9758 37.7992 16.4845 38.0099 17.0148 38.0099Z" fill="#25398F"/>
<path d="M17.0148 46.0104H71.009C71.5394 46.0104 72.0481 45.7997 72.4232 45.4246C72.7983 45.0495 73.009 44.5408 73.009 44.0104C73.009 43.4799 72.7983 42.9712 72.4232 42.5962C72.0481 42.2211 71.5394 42.0104 71.009 42.0104H17.0148C16.4844 42.0104 15.9757 42.2211 15.6006 42.5962C15.2255 42.9712 15.0148 43.4799 15.0148 44.0104C15.0148 44.5408 15.2255 45.0495 15.6006 45.4246C15.9757 45.7997 16.4844 46.0104 17.0148 46.0104Z" fill="#25398F"/>
<path d="M17.0148 54.0104H71.009C71.5394 54.0104 72.0481 53.7997 72.4232 53.4246C72.7983 53.0495 73.009 52.5408 73.009 52.0104C73.009 51.4799 72.7983 50.9712 72.4232 50.5962C72.0481 50.2211 71.5394 50.0104 71.009 50.0104H17.0148C16.4844 50.0104 15.9757 50.2211 15.6006 50.5962C15.2255 50.9712 15.0148 51.4799 15.0148 52.0104C15.0148 52.5408 15.2255 53.0495 15.6006 53.4246C15.9757 53.7997 16.4844 54.0104 17.0148 54.0104Z" fill="#25398F"/>
<path d="M17.0148 62.0099H71.009C71.5394 62.0099 72.048 61.7992 72.4231 61.4242C72.7981 61.0491 73.0088 60.5405 73.0088 60.0101C73.0088 59.4798 72.7981 58.9711 72.4231 58.5961C72.048 58.2211 71.5394 58.0104 71.009 58.0104H17.0148C16.4845 58.0104 15.9758 58.2211 15.6008 58.5961C15.2258 58.9711 15.0151 59.4798 15.0151 60.0101C15.0151 60.5405 15.2258 61.0491 15.6008 61.4242C15.9758 61.7992 16.4845 62.0099 17.0148 62.0099Z" fill="#25398F"/>
<path d="M17.0148 70.0104H71.009C71.5394 70.0104 72.0481 69.7997 72.4232 69.4246C72.7983 69.0495 73.009 68.5408 73.009 68.0104C73.009 67.4799 72.7983 66.9712 72.4232 66.5962C72.0481 66.2211 71.5394 66.0104 71.009 66.0104H17.0148C16.4844 66.0104 15.9757 66.2211 15.6006 66.5962C15.2255 66.9712 15.0148 67.4799 15.0148 68.0104C15.0148 68.5408 15.2255 69.0495 15.6006 69.4246C15.9757 69.7997 16.4844 70.0104 17.0148 70.0104Z" fill="#25398F"/>
<path d="M17.0148 78.0104H71.009C71.5394 78.0104 72.0481 77.7997 72.4232 77.4246C72.7983 77.0495 73.009 76.5408 73.009 76.0104C73.009 75.4799 72.7983 74.9712 72.4232 74.5962C72.0481 74.2211 71.5394 74.0104 71.009 74.0104H17.0148C16.4844 74.0104 15.9757 74.2211 15.6006 74.5962C15.2255 74.9712 15.0148 75.4799 15.0148 76.0104C15.0148 76.5408 15.2255 77.0495 15.6006 77.4246C15.9757 77.7997 16.4844 78.0104 17.0148 78.0104Z" fill="#25398F"/>
<path d="M71.0129 99.0104H63.0139C62.4835 99.0104 61.9748 99.2211 61.5997 99.5962C61.2247 99.9712 61.0139 100.48 61.0139 101.01C61.0139 101.541 61.2247 102.05 61.5997 102.425C61.9748 102.8 62.4835 103.01 63.0139 103.01H71.0129C71.5434 103.01 72.0521 102.8 72.4272 102.425C72.8022 102.05 73.0129 101.541 73.0129 101.01C73.0129 100.48 72.8022 99.9712 72.4272 99.5962C72.0521 99.2211 71.5434 99.0104 71.0129 99.0104Z" fill="#CE2127"/>
<path d="M39.0158 101.012C39.0167 103.035 38.404 105.011 37.2587 106.679C36.1133 108.347 34.4891 109.628 32.6005 110.354C30.7119 111.08 28.6475 111.216 26.68 110.744C24.7125 110.273 22.9342 109.215 21.5799 107.712C20.2255 106.209 19.3589 104.331 19.0942 102.325C18.8296 100.319 19.1794 98.2798 20.0975 96.4768C21.0156 94.6738 22.4588 93.1915 24.2367 92.2257C26.0146 91.2599 28.0436 90.8559 30.0558 91.067C30.9749 89.748 32.147 88.625 33.5041 87.7633C30.7585 86.8343 27.7921 86.7809 25.0149 87.6104C22.2376 88.4399 19.7864 90.1115 18 92.394C16.2136 94.6766 15.1802 97.4576 15.0424 100.353C14.9046 103.248 15.6693 106.115 17.2309 108.557C18.7925 110.999 21.0738 112.895 23.7598 113.985C26.4457 115.074 29.4037 115.303 32.2252 114.639C35.0466 113.975 37.5922 112.451 39.5103 110.278C41.4284 108.105 42.6243 105.39 42.9328 102.507C41.5409 102.08 40.2163 101.458 38.9982 100.661C39.0021 100.778 39.0158 100.893 39.0158 101.012Z" fill="#CE2127"/>
<path d="M55.0363 86.133C54.5378 86.3143 54.1318 86.6861 53.9074 87.1667C53.6831 87.6474 53.6588 88.1974 53.84 88.6959C53.9852 89.1114 54.038 89.5536 53.9945 89.9916C53.9509 90.4296 53.8123 90.8528 53.5881 91.2316C52.5782 92.9379 51.0141 94.2466 49.1564 94.9396C47.8118 95.2722 46.4009 95.2212 45.0839 94.7924C43.7668 94.3636 42.5964 93.5742 41.7053 92.5138C39.7004 90.1315 37.6349 90.3571 36.5832 90.7033C34.3947 91.4225 32.7424 93.8395 31.5861 96.445C30.9186 95.4304 30.0522 94.5617 29.0392 93.8917C28.589 93.6249 28.0517 93.5465 27.544 93.6737C27.0364 93.8009 26.5995 94.1233 26.3283 94.5709C26.0553 95.0214 25.9697 95.561 26.0898 96.0739C26.21 96.5868 26.5263 97.0322 26.9709 97.3146C27.0861 97.3888 29.8098 99.1808 29.508 103.883C29.4742 104.412 29.652 104.934 30.0023 105.332C30.3526 105.73 30.8468 105.973 31.3762 106.008C31.6408 106.037 31.9087 106.011 32.1627 105.931C32.4168 105.851 32.6513 105.719 32.8512 105.543C33.0512 105.368 33.2122 105.152 33.324 104.91C33.4357 104.668 33.4958 104.406 33.5002 104.14C33.674 101.295 36.0871 95.0768 37.8332 94.5026C38.0734 94.4269 38.589 95.0211 38.6457 95.0895C40.0325 96.7261 41.8501 97.9413 43.8924 98.5973C45.9347 99.2533 48.12 99.3238 50.2004 98.8009C53.1381 97.8088 55.6082 95.7705 57.1398 93.0744C57.6196 92.2041 57.9088 91.2417 57.9881 90.2511C58.0674 89.2605 57.935 88.2643 57.5998 87.3288C57.51 87.082 57.3725 86.8552 57.195 86.6615C57.0176 86.4678 56.8038 86.311 56.5657 86.2C56.3277 86.0889 56.0701 86.0259 55.8077 86.0144C55.5452 86.0029 55.2831 86.0432 55.0363 86.133Z" fill="#CE2127"/>
<path d="M82.0119 0.0162339H26.9416C26.1182 -0.0621138 25.2929 0.144724 24.6037 0.602134L0.605721 24.6011C0.37664 24.8819 0.206649 25.2061 0.105952 25.5543C0.00525367 25.9024 -0.0240763 26.2673 0.0197203 26.627V122.011C0.021729 123.601 0.65453 125.126 1.77933 126.251C2.90413 127.376 4.42908 128.008 6.01972 128.01H82.0119C83.6026 128.008 85.1275 127.376 86.2523 126.251C87.3771 125.126 88.0099 123.601 88.0119 122.011V6.01573C88.0099 4.4251 87.3771 2.90019 86.2523 1.77549C85.1275 0.650788 83.6026 0.0181127 82.0119 0.0162339ZM24.0178 6.84433V22.1138C24.0237 22.6113 23.8321 23.0908 23.485 23.4472C23.1379 23.8036 22.6637 24.0079 22.1662 24.0152H6.84882L24.0178 6.84433ZM84.0109 122.011C84.0105 122.541 83.7998 123.049 83.4251 123.424C83.0503 123.799 82.5421 124.01 82.0119 124.011H6.01972C5.48958 124.01 4.98136 123.799 4.60659 123.424C4.23182 123.049 4.02111 122.541 4.02072 122.011V28.0147H22.1662C23.7241 28.0064 25.2152 27.3805 26.3122 26.2742C27.4092 25.168 28.0226 23.6718 28.0178 22.1138V4.01573H82.0119C82.5421 4.01638 83.0503 4.22733 83.4251 4.60229C83.7999 4.97725 84.0106 5.48559 84.0109 6.01573V122.011Z" fill="#25398F"/>
</svg>
