<svg width="468" height="313" viewBox="0 0 468 313" fill="none" xmlns="http://www.w3.org/2000/svg">
<path d="M395.2 312.1H33C14.8 312.1 0 297.3 0 279.1V72.8C0 54.6 14.8 39.8 33 39.8H395.2C413.4 39.8 428.2 54.6 428.2 72.8V279.1C428.1 297.3 413.3 312.1 395.2 312.1ZM33 47.9001C19.2 47.9001 8 59.1001 8 72.9001V279.2C8 293 19.2 304.2 33 304.2H395.2C409 304.2 420.2 293 420.2 279.2V72.8C420.2 59 409 47.8 395.2 47.8H33V47.9001Z" fill="#25398F"/>
<path d="M137 236.5H98.6C96.4 236.5 94.6 234.7 94.6 232.5V199.1H61.3C59.1 199.1 57.3 197.3 57.3 195.1V156.7C57.3 154.5 59.1 152.7 61.3 152.7H94.7V119.3C94.7 117.1 96.5 115.3 98.7 115.3H137C139.2 115.3 141 117.1 141 119.3V152.7H174.4C176.6 152.7 178.4 154.5 178.4 156.7V195.1C178.4 197.3 176.6 199.1 174.4 199.1H141V232.5C141 234.7 139.3 236.5 137 236.5ZM102.7 228.5H133V195.1C133 192.9 134.8 191.1 137 191.1H170.4V160.7H137C134.8 160.7 133 158.9 133 156.7V123.3H102.6V156.7C102.6 158.9 100.8 160.7 98.6 160.7H65.3V191.1H98.7C100.9 191.1 102.7 192.9 102.7 195.1V228.5Z" fill="#CE2127"/>
<path d="M366.9 123H222C219.8 123 218 121.2 218 119C218 116.8 219.8 115 222 115H366.9C369.1 115 370.9 116.8 370.9 119C370.9 121.2 369.1 123 366.9 123Z" fill="#25398F"/>
<path d="M366.9 180H222C219.8 180 218 178.2 218 176C218 173.8 219.8 172 222 172H366.9C369.1 172 370.9 173.8 370.9 176C370.9 178.2 369.1 180 366.9 180Z" fill="#25398F"/>
<path d="M366.9 237H222C219.8 237 218 235.2 218 233C218 230.8 219.8 229 222 229H366.9C369.1 229 370.9 230.8 370.9 233C370.9 235.2 369.1 237 366.9 237Z" fill="#25398F"/>
<path d="M435 272.3H424.1C421.9 272.3 420.1 270.5 420.1 268.3V72.8C420.1 59 408.9 47.8 395.1 47.8H43.8001C41.6001 47.8 39.8 46 39.8 43.8V33C39.8 14.8 54.6001 0 72.8001 0H435C453.2 0 468 14.8 468 33V239.3C468 257.5 453.2 272.3 435 272.3ZM428.1 264.3H435C448.8 264.3 460 253.1 460 239.3V33C460 19.2 448.8 8 435 8H72.8001C59.0001 8 47.8001 19.2 47.8001 33V39.8H395.1C413.3 39.8 428.1 54.6 428.1 72.8V264.3Z" fill="#25398F"/>
</svg>
