<svg width="468" height="269" viewBox="0 0 468 269" fill="none" xmlns="http://www.w3.org/2000/svg">
<path d="M183.2 151.1V116.8H217.5C219.7 116.8 221.5 115 221.5 112.8V84C221.5 81.8 219.7 80 217.5 80H183.2V45.7C183.2 43.5 181.4 41.7 179.2 41.7H150.4C148.2 41.7 146.4 43.5 146.4 45.7V80H112.1C109.9 80 108.1 81.8 108.1 84V112.8C108.1 115 109.9 116.8 112.1 116.8H146.4V151.1C146.4 153.3 148.2 155.1 150.4 155.1H179.2C181.4 155.1 183.2 153.3 183.2 151.1ZM175.2 112.8V147.1H154.4V112.8C154.4 110.6 152.6 108.8 150.4 108.8H116.1V88H150.4C152.6 88 154.4 86.2 154.4 84V49.7H175.2V84C175.2 86.2 177 88 179.2 88H213.5V108.8H179.2C177 108.8 175.2 110.6 175.2 112.8Z" fill="#CE2127"/>
<path d="M464 260.3H387.4L378.2 218.8H400.3C417.6 218.8 431.7 204.7 431.7 187.5V53.3C431.7 44.9 428.4 37.1 422.5 31.1C416.6 25.2 408.7 21.9 400.3 21.9H305.6C301.6 9.19999 289.7 0 275.7 0H67.7C50.4 0 36.3 14.1 36.3 31.4V165.4C36.3 182.7 50.4 196.8 67.7 196.8H89.8L79.9 241.5C79.5 243.1 80.2 244.8 81.6 245.7C82.3 246.1 83 246.4 83.8 246.4C84.6 246.4 85.5 246.1 86.2 245.6L153.2 196.8H162.4C166.5 209.7 178.6 218.7 192.3 218.7H314.9L372 260.2H4C1.8 260.2 0 262 0 264.2C0 266.4 1.8 268.2 4 268.2H464C466.2 268.2 468 266.4 468 264.2C468 262 466.2 260.3 464 260.3ZM151.8 188.9C151 188.9 150.1 189.2 149.4 189.7L90 232.9L98.7 193.7C99 192.5 98.7 191.3 97.9 190.3C97.1 189.4 96 188.8 94.8 188.8H67.7C54.8 188.8 44.3 178.3 44.3 165.4V31.4C44.3 18.5 54.8 8 67.7 8H275.8C288.2 8 298.3 17.6 299.1 29.8C299.1 29.9 299.1 30.1 299.1 30.2C299.1 30.6 299.1 31 299.1 31.4V165.4C299.1 178.3 288.6 188.8 275.7 188.8H165.4H151.8V188.9ZM316.1 210.7H192.2C182.9 210.7 174.5 205.1 170.8 196.8H275.7C293 196.8 307.1 182.7 307.1 165.4V31.4C307.1 30.9 307.1 30.4 307.1 29.9H400.3C406.5 29.9 412.4 32.3 416.8 36.8C421.2 41.2 423.7 47.1 423.7 53.3V187.4C423.7 200.3 413.2 210.7 400.3 210.7H373.2C372 210.7 370.8 211.2 370.1 212.2C369.3 213.1 369.1 214.4 369.3 215.6L378 254.8L318.5 211.5C317.8 211 317 210.7 316.1 210.7Z" fill="#25398F"/>
</svg>
