<svg width="474" height="283" viewBox="0 0 474 283" fill="none" xmlns="http://www.w3.org/2000/svg">
<path d="M101.971 138.942H130.684V167.629C130.684 171.495 133.818 174.629 137.684 174.629H158.253C162.119 174.629 165.253 171.495 165.253 167.629V138.942H193.965C197.831 138.942 200.965 135.808 200.965 131.942V111.368C200.965 107.502 197.831 104.368 193.965 104.368H165.253V75.681C165.253 71.815 162.119 68.681 158.253 68.681H137.684C133.818 68.681 130.684 71.815 130.684 75.681V104.368H101.971C98.1049 104.368 94.9709 107.502 94.9709 111.368V131.942C94.9709 135.808 98.1049 138.942 101.971 138.942ZM108.971 118.368H137.684C141.55 118.368 144.684 115.234 144.684 111.368V82.681H151.253V111.368C151.253 115.234 154.387 118.368 158.253 118.368H186.965V124.942H158.253C154.387 124.942 151.253 128.076 151.253 131.942V160.629H144.684V131.942C144.684 128.076 141.55 124.942 137.684 124.942H108.971V118.368Z" fill="#CE2127"/>
<path d="M223.202 175.781H85.2C81.334 175.781 78.2 178.916 78.2 182.781C78.2 186.647 81.334 189.781 85.2 189.781H223.202C227.068 189.781 230.202 186.647 230.202 182.781C230.202 178.915 227.068 175.781 223.202 175.781Z" fill="#25398F"/>
<path d="M201.003 202.265H85.2C81.334 202.265 78.2 205.4 78.2 209.265C78.2 213.131 81.334 216.265 85.2 216.265H201.003C204.869 216.265 208.003 213.131 208.003 209.265C208.003 205.4 204.869 202.265 201.003 202.265Z" fill="#25398F"/>
<path d="M447.509 0H192.076C177.472 0 165.591 11.883 165.591 26.489V36.772H26.485C11.881 36.772 0 48.655 0 63.261V222.245C0 236.831 11.881 248.698 26.485 248.698H72.183L73.266 276.2C73.365 278.7 74.788 280.956 77.001 282.12C78.024 282.659 79.143 282.926 80.26 282.926C81.56 282.926 82.858 282.564 83.995 281.847L136.543 248.699H281.898C296.51 248.699 308.402 236.832 308.402 222.246V211.928H337.448L390 245.076C391.138 245.793 392.435 246.154 393.734 246.154C394.849 246.154 395.969 245.886 396.994 245.348C399.207 244.184 400.631 241.927 400.728 239.429L401.811 211.925H447.506C462.11 211.925 473.99 200.059 473.99 185.473V26.49C473.993 11.883 462.112 0 447.509 0ZM294.402 204.925V222.245C294.402 229.11 288.793 234.698 281.898 234.698H134.52C133.198 234.698 131.903 235.071 130.785 235.776L86.778 263.538L85.907 241.423C85.759 237.667 82.671 234.698 78.912 234.698H26.485C19.601 234.698 14 229.11 14 222.245V63.261C14 56.374 19.601 50.772 26.485 50.772H281.898C288.793 50.772 294.402 56.375 294.402 63.261V204.925ZM459.993 185.473C459.993 192.339 454.39 197.925 447.509 197.925H395.081C391.322 197.925 388.234 200.894 388.087 204.65L387.217 226.766L343.206 199.004C342.088 198.299 340.794 197.925 339.472 197.925H308.405V63.261V63.26C308.405 48.654 296.513 36.771 281.901 36.771H179.591V26.489C179.591 19.602 185.192 14 192.076 14H447.509C454.393 14 459.993 19.603 459.993 26.49V185.473Z" fill="#25398F"/>
</svg>
