<svg width="453" height="259" viewBox="0 0 453 259" fill="none" xmlns="http://www.w3.org/2000/svg">
<path d="M271.302 36.771H161.994H15.889C7.128 36.771 0 43.901 0 52.664V211.649C0 220.392 7.128 227.504 15.889 227.504H68.315C70.246 227.504 71.832 229.028 71.908 230.959L73.012 258.965L122.006 228.06C122.58 227.698 123.245 227.504 123.924 227.504H271.302C280.073 227.504 287.209 220.392 287.209 211.649V194.329V52.665C287.21 43.901 280.073 36.771 271.302 36.771ZM87.779 100.772C87.779 98.786 89.389 97.176 91.375 97.176H123.492V65.084C123.492 63.098 125.102 61.488 127.088 61.488H147.657C149.643 61.488 151.253 63.097 151.253 65.084V97.176H183.37C185.356 97.176 186.966 98.785 186.966 100.772V121.345C186.966 123.331 185.356 124.941 183.37 124.941H151.253V157.033C151.253 159.019 149.643 160.63 147.657 160.63H127.088C125.102 160.63 123.492 159.021 123.492 157.033V124.941H91.375C89.389 124.941 87.779 123.332 87.779 121.345V100.772ZM190.407 202.264H74.603C72.617 202.264 71.007 200.655 71.007 198.668C71.007 196.681 72.617 195.071 74.603 195.071H190.406C192.392 195.071 194.002 196.68 194.002 198.668C194.002 200.655 192.392 202.264 190.407 202.264ZM212.605 175.779H74.603C72.617 175.779 71.007 174.171 71.007 172.183C71.007 170.195 72.617 168.586 74.603 168.586H212.605C214.591 168.586 216.201 170.195 216.201 172.183C216.201 174.171 214.591 175.779 212.605 175.779Z" fill="#25398F"/>
<path d="M436.912 0H181.479C172.717 0 165.589 7.13001 165.589 15.893V29.58H271.301C284.037 29.58 294.401 39.935 294.401 52.665V190.734H328.876C329.556 190.734 330.221 190.926 330.795 191.29L379.789 222.194L380.893 194.188C380.968 192.258 382.555 190.734 384.486 190.734H436.914C445.676 190.734 452.804 183.622 452.804 174.878V15.893C452.801 7.12901 445.673 0 436.912 0Z" fill="#25398F"/>
<path d="M130.682 121.345V153.437H144.06V121.345C144.06 119.359 145.67 117.749 147.656 117.749H179.773V104.367H147.656C145.67 104.367 144.06 102.758 144.06 100.771V68.679H130.682V100.771C130.682 102.757 129.072 104.367 127.086 104.367H94.97V117.749H127.087C129.073 117.75 130.682 119.359 130.682 121.345Z" fill="#CE2127"/>
</svg>
