<svg width="468" height="324" viewBox="0 0 468 324" fill="none" xmlns="http://www.w3.org/2000/svg">
<path d="M64.9 323.9C64.3 323.9 63.7 323.8 63.1 323.5C61.8 322.9 61 321.6 60.9 320.2L57 265.2H26.5C11.9 265.2 0 253.3 0 238.8V26.5C0 11.9 11.9 0 26.5 0H353.8C368.4 0 380.3 11.9 380.3 26.5V59.5C380.3 61.4 378.9 63.1 377 63.4C343.5 69.4 319.1 98.6 319.1 132.7C319.1 166.8 343.4 195.9 377 202C378.9 202.3 380.3 204 380.3 205.9V238.7C380.3 253.3 368.4 265.1 353.8 265.1H153L111.5 293.1L67.1 323.1C66.5 323.6 65.7 323.9 64.9 323.9ZM26.5 8C16.3 8 8 16.3 8 26.5V238.7C8 248.9 16.3 257.1 26.5 257.1H60.8C62.9 257.1 64.6 258.7 64.8 260.8L68.5 312.6L107.1 286.5L149.6 257.8C150.3 257.4 151 257.1 151.8 257.1H353.8C364 257.1 372.3 248.8 372.3 238.7V209.1C336.7 201.1 311.2 169.5 311.2 132.6C311.2 95.7 336.7 64.1 372.3 56.1V26.4C372.3 16.2 364 7.9 353.8 7.9H26.5V8Z" fill="#25398F"/>
<path d="M313.8 56.7H69C66.8 56.7 65 54.9 65 52.7C65 50.5 66.8 48.7 69 48.7H313.8C316 48.7 317.8 50.5 317.8 52.7C317.8 54.9 316 56.7 313.8 56.7Z" fill="#25398F"/>
<path d="M191.4 111.7H69C66.8 111.7 65 109.9 65 107.7C65 105.5 66.8 103.7 69 103.7H191.4C193.6 103.7 195.4 105.5 195.4 107.7C195.4 109.9 193.6 111.7 191.4 111.7Z" fill="#25398F"/>
<path d="M277.6 166.6H69C66.8 166.6 65 164.8 65 162.6C65 160.4 66.8 158.6 69 158.6H277.6C279.8 158.6 281.6 160.4 281.6 162.6C281.6 164.8 279.8 166.6 277.6 166.6Z" fill="#25398F"/>
<path d="M313.8 221.5H69C66.8 221.5 65 219.7 65 217.5C65 215.3 66.8 213.5 69 213.5H313.8C316 213.5 317.8 215.3 317.8 217.5C317.8 219.7 316 221.5 313.8 221.5Z" fill="#25398F"/>
<path d="M389.6 211.1C346.3 211.1 311.1 175.9 311.1 132.7C311.1 89.5 346.3 54.3 389.6 54.3C432.9 54.3 468 89.5 468 132.7C468 175.9 432.8 211.1 389.6 211.1ZM389.6 62.3C350.8 62.3 319.1 93.9 319.1 132.7C319.1 171.5 350.7 203.1 389.6 203.1C428.4 203.1 460 171.5 460 132.7C460 93.9 428.4 62.3 389.6 62.3Z" fill="#25398F"/>
<path d="M400 180.9H379.1C376.9 180.9 375.1 179.1 375.1 176.9V147.2H345.4C343.2 147.2 341.4 145.4 341.4 143.2V122.3C341.4 120.1 343.2 118.3 345.4 118.3H375.1V88.6C375.1 86.4 376.9 84.6 379.1 84.6H400C402.2 84.6 404 86.4 404 88.6V118.3H433.7C435.9 118.3 437.7 120.1 437.7 122.3V143.2C437.7 145.4 435.9 147.2 433.7 147.2H404V176.9C404 179.1 402.2 180.9 400 180.9ZM383.1 172.9H396V143.2C396 141 397.8 139.2 400 139.2H429.7V126.3H400C397.8 126.3 396 124.5 396 122.3V92.6H383.1V122.3C383.1 124.5 381.3 126.3 379.1 126.3H349.4V139.2H379.1C381.3 139.2 383.1 141 383.1 143.2V172.9Z" fill="#CE2127"/>
</svg>
