<svg width="64" height="65" viewBox="0 0 64 65" fill="none" xmlns="http://www.w3.org/2000/svg">
<path d="M6 58.667V44.2363L8.82227 38.5928L11.707 35.707C11.8917 35.5189 11.9947 35.2655 11.9935 35.0019C11.9923 34.7383 11.887 34.4858 11.7006 34.2994C11.5142 34.113 11.2617 34.0077 10.9981 34.0065C10.7345 34.0053 10.4811 34.1083 10.293 34.293L7.293 37.293C7.21696 37.369 7.15365 37.4567 7.1055 37.5528L4.1055 43.5528C4.03612 43.6917 4 43.8448 4 44V59C3.99993 59.2163 4.0702 59.4268 4.2002 59.5996L7.2002 63.5996C7.27879 63.7051 7.37741 63.794 7.49041 63.8612C7.60342 63.9285 7.72858 63.9728 7.85874 63.9916C7.9889 64.0104 8.12148 64.0034 8.24891 63.9708C8.37633 63.9383 8.49608 63.881 8.60131 63.8021C8.70653 63.7232 8.79515 63.6243 8.86209 63.5111C8.92904 63.3979 8.97299 63.2726 8.99143 63.1424C9.00987 63.0122 9.00243 62.8797 8.96955 62.7523C8.93667 62.625 8.87898 62.5054 8.7998 62.4004L6 58.667Z" fill="#25398F"/>
<path d="M15.8086 43.8408C15.3942 43.254 14.7839 42.8344 14.0876 42.6577C13.3913 42.481 12.6548 42.5587 12.0107 42.877L11.5791 43.0918C11.1986 43.2821 10.863 43.5511 10.5944 43.881C10.3259 44.2109 10.1305 44.5942 10.0214 45.0053C9.91221 45.4164 9.89173 45.8461 9.96128 46.2658C10.0308 46.6854 10.1888 47.0855 10.4248 47.4395L15.168 54.5547C15.2402 54.6654 15.3337 54.7606 15.4429 54.8349C15.5522 54.9093 15.6751 54.9612 15.8045 54.9877C15.934 55.0143 16.0674 55.0149 16.1971 54.9896C16.3268 54.9643 16.4502 54.9135 16.5601 54.8402C16.6701 54.7669 16.7644 54.6725 16.8377 54.5625C16.9109 54.4525 16.9617 54.3291 16.9869 54.1994C17.0122 54.0697 17.0115 53.9363 16.9849 53.8069C16.9584 53.6774 16.9064 53.5546 16.832 53.4453L12.0888 46.3301C12.0102 46.2122 11.9574 46.0789 11.9342 45.939C11.9109 45.7992 11.9177 45.656 11.954 45.5189C11.9903 45.3819 12.0553 45.2541 12.1447 45.1441C12.2341 45.0341 12.3459 44.9444 12.4726 44.8809L12.9043 44.666C13.119 44.5603 13.3643 44.5346 13.5963 44.5935C13.8282 44.6523 14.0316 44.792 14.1699 44.9873L20 53.3154V63C20 63.2652 20.1054 63.5196 20.2929 63.7071C20.4804 63.8947 20.7348 64 21 64C21.2652 64 21.5196 63.8947 21.7071 63.7071C21.8946 63.5196 22 63.2652 22 63V53C21.9998 52.795 21.9368 52.5949 21.8193 52.4268L15.8086 43.8408Z" fill="#25398F"/>
<path d="M56.8945 37.5527C56.8464 37.4566 56.7831 37.3689 56.707 37.2929L53.707 34.2929C53.5191 34.1074 53.2654 34.0037 53.0013 34.0045C52.7372 34.0054 52.4842 34.1106 52.2974 34.2974C52.1107 34.4841 52.0054 34.7372 52.0046 35.0013C52.0038 35.2654 52.1074 35.5191 52.293 35.707L55.1778 38.5927L58 44.2363V58.667L55.2002 62.4004C55.121 62.5054 55.0633 62.625 55.0305 62.7523C54.9976 62.8796 54.9901 63.0122 55.0086 63.1424C55.027 63.2726 55.071 63.3979 55.1379 63.5111C55.2049 63.6243 55.2935 63.7232 55.3987 63.802C55.5039 63.8809 55.6237 63.9383 55.7511 63.9708C55.8785 64.0033 56.0111 64.0104 56.1413 63.9916C56.2714 63.9728 56.3966 63.9285 56.5096 63.8612C56.6226 63.7939 56.7212 63.705 56.7998 63.5996L59.7998 59.5996C59.9298 59.4267 60.0001 59.2163 60 59V44C60 43.8447 59.9639 43.6916 59.8945 43.5527L56.8945 37.5527Z" fill="#25398F"/>
<path d="M52.4199 43.0918L51.9902 42.8769C51.3459 42.5592 50.6094 42.4818 49.9131 42.6584C49.2168 42.8351 48.6063 43.2544 48.1914 43.8408L42.1807 52.4268C42.0632 52.5949 42.0002 52.7949 42 53V63C42 63.2652 42.1054 63.5196 42.2929 63.7071C42.4804 63.8946 42.7348 64 43 64C43.2652 64 43.5196 63.8946 43.7071 63.7071C43.8946 63.5196 44 63.2652 44 63V53.3154L49.8301 44.9873C49.9684 44.7918 50.172 44.6521 50.4042 44.5932C50.6363 44.5343 50.8819 44.5601 51.0967 44.666L51.5264 44.8809C51.6533 44.9442 51.7652 45.0338 51.8548 45.1438C51.9444 45.2538 52.0095 45.3815 52.0459 45.5186C52.0823 45.6557 52.0891 45.7989 52.0659 45.9388C52.0426 46.0788 51.9899 46.2121 51.9111 46.3301L47.168 53.4453C47.0936 53.5545 47.0416 53.6774 47.0151 53.8069C46.9885 53.9363 46.9878 54.0697 47.0131 54.1994C47.0383 54.3291 47.0891 54.4525 47.1623 54.5625C47.2356 54.6725 47.3299 54.7668 47.4399 54.8401C47.5498 54.9134 47.6732 54.9642 47.8029 54.9896C47.9326 55.0149 48.066 55.0143 48.1955 54.9877C48.3249 54.9612 48.4478 54.9092 48.5571 54.8349C48.6663 54.7606 48.7598 54.6653 48.832 54.5547L53.5752 47.4394C53.8112 47.0855 53.9692 46.6853 54.0388 46.2656C54.1083 45.8459 54.0878 45.4161 53.9785 45.0049C53.8692 44.5938 53.6738 44.2105 53.405 43.8807C53.1363 43.5508 52.8005 43.2819 52.4199 43.0918Z" fill="#25398F"/>
<path d="M40 51H24C23.7348 51 23.4804 51.1054 23.2929 51.2929C23.1054 51.4804 23 51.7348 23 52C23 52.2652 23.1054 52.5196 23.2929 52.7071C23.4804 52.8946 23.7348 53 24 53H40C40.2652 53 40.5196 52.8946 40.7071 52.7071C40.8946 52.5196 41 52.2652 41 52C41 51.7348 40.8946 51.4804 40.7071 51.2929C40.5196 51.1054 40.2652 51 40 51Z" fill="#25398F"/>
<path d="M50 41C50.1313 41.0001 50.2614 40.9743 50.3828 40.924C50.5041 40.8738 50.6144 40.8001 50.7073 40.7073C50.8001 40.6144 50.8738 40.5041 50.924 40.3828C50.9743 40.2614 51.0001 40.1313 51 40V27C51 26.8687 50.9742 26.7386 50.924 26.6173C50.8737 26.4959 50.8 26.3857 50.7072 26.2928C50.6143 26.2 50.5041 26.1263 50.3827 26.0761C50.2614 26.0258 50.1313 26 50 26H14C13.8687 26 13.7386 26.0258 13.6173 26.0761C13.4959 26.1263 13.3857 26.2 13.2928 26.2928C13.2 26.3857 13.1263 26.4959 13.0761 26.6173C13.0258 26.7386 13 26.8687 13 27V40C13 40.2652 13.1054 40.5196 13.2929 40.7071C13.4804 40.8946 13.7348 41 14 41C14.2652 41 14.5196 40.8946 14.7071 40.7071C14.8946 40.5196 15 40.2652 15 40V28H49V40C48.9999 40.1313 49.0257 40.2614 49.076 40.3828C49.1262 40.5041 49.1999 40.6144 49.2927 40.7073C49.3856 40.8001 49.4959 40.8738 49.6172 40.924C49.7386 40.9743 49.8687 41.0001 50 41Z" fill="#25398F"/>
<path d="M36.8945 39.5527L35.9834 37.7305C35.8633 36.4434 34.8857 31 27 31C18.2188 31 17.0186 39.7871 17.0078 39.876C17.0028 39.9171 17.0002 39.9585 17 40C17 44.6445 19.3555 47 24 47H27.5859L29.2929 48.707C29.3858 48.7999 29.496 48.8736 29.6173 48.9239C29.7386 48.9742 29.8687 49 30 49H36C36.1519 49 36.3018 48.9653 36.4384 48.8987C36.5749 48.8321 36.6944 48.7352 36.7879 48.6155C36.8814 48.4957 36.9463 48.3562 36.9778 48.2076C37.0094 48.059 37.0066 47.9052 36.9697 47.7578L36.0312 44L36.9697 40.2422C37.028 40.0108 37.0013 39.7661 36.8945 39.5527ZM34.0303 44.2422L34.7188 47H33V46C33 45.7348 32.8946 45.4804 32.7071 45.2929C32.5196 45.1054 32.2652 45 32 45C31.7348 45 31.4804 45.1054 31.2929 45.2929C31.1054 45.4804 31 45.7348 31 46V47H30.4141L29 45.5859V44C29 43.7348 28.8946 43.4804 28.7071 43.2929C28.5196 43.1054 28.2652 43 28 43C27.7348 43 27.4804 43.1054 27.2929 43.2929C27.1054 43.4804 27 43.7348 27 44V45H24C20.5185 45 19.0195 43.5244 19 40.0684C19.1094 39.3418 20.2588 33 27 33C33.7383 33 33.9932 37.4941 34 38C34 38.1553 34.0361 38.3084 34.1055 38.4473L34.9405 40.1162L34.0303 43.7578C33.9903 43.9168 33.9902 44.0832 34.0303 44.2422Z" fill="#CE2127"/>
<path d="M32 38C32.2652 38 32.5196 37.8946 32.7071 37.7071C32.8946 37.5196 33 37.2652 33 37C33 36.7348 32.8946 36.4804 32.7071 36.2929C32.5196 36.1054 32.2652 36 32 36C31.2044 36 30.4413 36.3161 29.8787 36.8787C29.3161 37.4413 29 38.2044 29 39C29 39.7956 29.3161 40.5587 29.8787 41.1213C30.4413 41.6839 31.2044 42 32 42C32.2652 42 32.5196 41.8946 32.7071 41.7071C32.8946 41.5196 33 41.2652 33 41C33 40.7348 32.8946 40.4804 32.7071 40.2929C32.5196 40.1054 32.2652 40 32 40C31.7348 40 31.4804 39.8946 31.2929 39.7071C31.1054 39.5196 31 39.2652 31 39C31 38.7348 31.1054 38.4804 31.2929 38.2929C31.4804 38.1054 31.7348 38 32 38Z" fill="#CE2127"/>
<path d="M47 34V30C47 29.8687 46.9742 29.7386 46.924 29.6173C46.8737 29.4959 46.8 29.3857 46.7072 29.2928C46.6143 29.2 46.5041 29.1263 46.3827 29.0761C46.2614 29.0258 46.1313 29 46 29H40C39.8687 29 39.7386 29.0258 39.6173 29.0761C39.4959 29.1263 39.3857 29.2 39.2928 29.2928C39.2 29.3857 39.1263 29.4959 39.076 29.6173C39.0258 29.7386 39 29.8687 39 30V34C38.9999 34.1313 39.0257 34.2614 39.076 34.3828C39.1262 34.5041 39.1999 34.6144 39.2927 34.7073C39.3856 34.8001 39.4959 34.8738 39.6172 34.924C39.7386 34.9743 39.8687 35.0001 40 35H46C46.1313 35.0001 46.2614 34.9743 46.3828 34.924C46.5041 34.8738 46.6144 34.8001 46.7073 34.7073C46.8001 34.6144 46.8738 34.5041 46.924 34.3828C46.9743 34.2614 47.0001 34.1313 47 34ZM45 33H41V31H45V33Z" fill="#25398F"/>
<path d="M42 37V40H39C38.7348 40 38.4804 40.1054 38.2929 40.2929C38.1054 40.4804 38 40.7348 38 41C38 41.2652 38.1054 41.5196 38.2929 41.7071C38.4804 41.8946 38.7348 42 39 42H43C43.1313 42.0001 43.2614 41.9743 43.3828 41.924C43.5041 41.8738 43.6144 41.8001 43.7073 41.7073C43.8001 41.6144 43.8738 41.5041 43.924 41.3828C43.9743 41.2614 44.0001 41.1313 44 41V37C44 36.7348 43.8946 36.4804 43.7071 36.2929C43.5196 36.1054 43.2652 36 43 36C42.7348 36 42.4804 36.1054 42.2929 36.2929C42.1054 36.4804 42 36.7348 42 37Z" fill="#25398F"/>
<path d="M58 9H55V6C55 5.86867 54.9742 5.73862 54.924 5.61728C54.8737 5.49594 54.8 5.38568 54.7072 5.29282C54.6143 5.19995 54.5041 5.12629 54.3827 5.07605C54.2614 5.02581 54.1313 4.99997 54 5H50C49.8687 4.99997 49.7386 5.02581 49.6173 5.07605C49.4959 5.12629 49.3857 5.19995 49.2928 5.29282C49.2 5.38568 49.1263 5.49594 49.076 5.61728C49.0258 5.73862 49 5.86867 49 6V9H46C45.8687 8.99997 45.7386 9.02581 45.6173 9.07605C45.4959 9.12629 45.3857 9.19995 45.2928 9.29282C45.2 9.38568 45.1263 9.49593 45.076 9.61728C45.0258 9.73862 45 9.86867 45 10V14C45 14.1313 45.0258 14.2614 45.076 14.3827C45.1263 14.5041 45.2 14.6143 45.2928 14.7072C45.3857 14.8 45.4959 14.8737 45.6173 14.9239C45.7386 14.9742 45.8687 15 46 15H49V18C49 18.1313 49.0258 18.2614 49.076 18.3827C49.1263 18.5041 49.2 18.6143 49.2928 18.7072C49.3857 18.8 49.4959 18.8737 49.6173 18.9239C49.7386 18.9742 49.8687 19 50 19H54C54.1313 19 54.2614 18.9742 54.3827 18.9239C54.5041 18.8737 54.6143 18.8 54.7072 18.7072C54.8 18.6143 54.8737 18.5041 54.924 18.3827C54.9742 18.2614 55 18.1313 55 18V15H58C58.1313 15 58.2614 14.9742 58.3827 14.9239C58.5041 14.8737 58.6143 14.8 58.7072 14.7072C58.8 14.6143 58.8737 14.5041 58.924 14.3827C58.9742 14.2614 59 14.1313 59 14V10C59 9.86867 58.9742 9.73862 58.924 9.61728C58.8737 9.49593 58.8 9.38568 58.7072 9.29282C58.6143 9.19995 58.5041 9.12629 58.3827 9.07605C58.2614 9.02581 58.1313 8.99997 58 9ZM57 13H54C53.8687 13 53.7386 13.0258 53.6173 13.0761C53.4959 13.1263 53.3857 13.2 53.2928 13.2928C53.2 13.3857 53.1263 13.4959 53.076 13.6173C53.0258 13.7386 53 13.8687 53 14V17H51V14C51 13.8687 50.9742 13.7386 50.924 13.6173C50.8737 13.4959 50.8 13.3857 50.7072 13.2928C50.6143 13.2 50.5041 13.1263 50.3827 13.0761C50.2614 13.0258 50.1313 13 50 13H47V11H50C50.1313 11 50.2614 10.9742 50.3827 10.9239C50.5041 10.8737 50.6143 10.8 50.7072 10.7072C50.8 10.6143 50.8737 10.5041 50.924 10.3827C50.9742 10.2614 51 10.1313 51 10V7H53V10C53 10.1313 53.0258 10.2614 53.076 10.3827C53.1263 10.5041 53.2 10.6143 53.2928 10.7072C53.3857 10.8 53.4959 10.8737 53.6173 10.9239C53.7386 10.9742 53.8687 11 54 11H57V13Z" fill="#CE2127"/>
<path d="M52 0C49.6266 0 47.3065 0.703788 45.3332 2.02236C43.3598 3.34094 41.8217 5.21509 40.9134 7.4078C40.0052 9.60051 39.7676 12.0133 40.2306 14.3411C40.6936 16.6689 41.8365 18.8071 43.5147 20.4853C45.1929 22.1635 47.3311 23.3064 49.6589 23.7694C51.9867 24.2324 54.3995 23.9948 56.5922 23.0866C58.7849 22.1783 60.6591 20.6402 61.9776 18.6668C63.2962 16.6935 64 14.3734 64 12C63.9964 8.81849 62.731 5.76831 60.4814 3.51864C58.2317 1.26898 55.1815 0.00355467 52 0ZM52 22C50.0222 22 48.0888 21.4135 46.4443 20.3147C44.7998 19.2159 43.5181 17.6541 42.7612 15.8268C42.0043 13.9996 41.8063 11.9889 42.1921 10.0491C42.578 8.10929 43.5304 6.32746 44.9289 4.92893C46.3275 3.53041 48.1093 2.578 50.0491 2.19215C51.9889 1.8063 53.9996 2.00433 55.8268 2.7612C57.6541 3.51808 59.2159 4.79981 60.3147 6.4443C61.4135 8.08879 62 10.0222 62 12C61.997 14.6512 60.9424 17.193 59.0677 19.0677C57.193 20.9424 54.6512 21.997 52 22Z" fill="#25398F"/>
<path d="M26 14H28C28.2652 14 28.5196 13.8946 28.7071 13.7071C28.8946 13.5196 29 13.2652 29 13C29 12.7348 28.8946 12.4804 28.7071 12.2929C28.5196 12.1054 28.2652 12 28 12H26C25.7348 12 25.4804 12.1054 25.2929 12.2929C25.1054 12.4804 25 12.7348 25 13C25 13.2652 25.1054 13.5196 25.2929 13.7071C25.4804 13.8946 25.7348 14 26 14Z" fill="#25398F"/>
<path d="M31 14H33C33.2652 14 33.5196 13.8946 33.7071 13.7071C33.8946 13.5196 34 13.2652 34 13C34 12.7348 33.8946 12.4804 33.7071 12.2929C33.5196 12.1054 33.2652 12 33 12H31C30.7348 12 30.4804 12.1054 30.2929 12.2929C30.1054 12.4804 30 12.7348 30 13C30 13.2652 30.1054 13.5196 30.2929 13.7071C30.4804 13.8946 30.7348 14 31 14Z" fill="#25398F"/>
<path d="M36 14H38C38.2652 14 38.5196 13.8946 38.7071 13.7071C38.8946 13.5196 39 13.2652 39 13C39 12.7348 38.8946 12.4804 38.7071 12.2929C38.5196 12.1054 38.2652 12 38 12H36C35.7348 12 35.4804 12.1054 35.2929 12.2929C35.1054 12.4804 35 12.7348 35 13C35 13.2652 35.1054 13.5196 35.2929 13.7071C35.4804 13.8946 35.7348 14 36 14Z" fill="#25398F"/>
<path d="M24 19V5C24 4.86867 23.9742 4.73862 23.9239 4.61728C23.8737 4.49594 23.8 4.38568 23.7072 4.29282C23.6143 4.19995 23.5041 4.12629 23.3827 4.07605C23.2614 4.02581 23.1313 3.99997 23 4H1C0.868668 3.99997 0.738617 4.02581 0.617276 4.07605C0.495935 4.12629 0.385682 4.19995 0.292817 4.29282C0.199952 4.38568 0.126294 4.49594 0.0760509 4.61728C0.0258083 4.73862 -3.41257e-05 4.86867 3.38207e-08 5V19C-3.41257e-05 19.1313 0.0258083 19.2614 0.0760509 19.3827C0.126294 19.5041 0.199952 19.6143 0.292817 19.7072C0.385682 19.8 0.495935 19.8737 0.617276 19.9239C0.738617 19.9742 0.868668 20 1 20H23C23.1313 20 23.2614 19.9742 23.3827 19.9239C23.5041 19.8737 23.6143 19.8 23.7072 19.7072C23.8 19.6143 23.8737 19.5041 23.9239 19.3827C23.9742 19.2614 24 19.1313 24 19ZM22 18H2V6H22V18Z" fill="#25398F"/>
<path d="M5 10H13C13.2652 10 13.5196 9.89464 13.7071 9.70711C13.8946 9.51957 14 9.26522 14 9C14 8.73478 13.8946 8.48043 13.7071 8.29289C13.5196 8.10536 13.2652 8 13 8H5C4.73478 8 4.48043 8.10536 4.29289 8.29289C4.10536 8.48043 4 8.73478 4 9C4 9.26522 4.10536 9.51957 4.29289 9.70711C4.48043 9.89464 4.73478 10 5 10Z" fill="#25398F"/>
<path d="M17 10H19C19.2652 10 19.5196 9.89464 19.7071 9.70711C19.8946 9.51957 20 9.26522 20 9C20 8.73478 19.8946 8.48043 19.7071 8.29289C19.5196 8.10536 19.2652 8 19 8H17C16.7348 8 16.4804 8.10536 16.2929 8.29289C16.1054 8.48043 16 8.73478 16 9C16 9.26522 16.1054 9.51957 16.2929 9.70711C16.4804 9.89464 16.7348 10 17 10Z" fill="#25398F"/>
<path d="M19 11H11C10.7348 11 10.4804 11.1054 10.2929 11.2929C10.1054 11.4804 10 11.7348 10 12C10 12.2652 10.1054 12.5196 10.2929 12.7071C10.4804 12.8946 10.7348 13 11 13H19C19.2652 13 19.5196 12.8946 19.7071 12.7071C19.8946 12.5196 20 12.2652 20 12C20 11.7348 19.8946 11.4804 19.7071 11.2929C19.5196 11.1054 19.2652 11 19 11Z" fill="#25398F"/>
<path d="M5 13H7C7.26522 13 7.51957 12.8946 7.70711 12.7071C7.89464 12.5196 8 12.2652 8 12C8 11.7348 7.89464 11.4804 7.70711 11.2929C7.51957 11.1054 7.26522 11 7 11H5C4.73478 11 4.48043 11.1054 4.29289 11.2929C4.10536 11.4804 4 11.7348 4 12C4 12.2652 4.10536 12.5196 4.29289 12.7071C4.48043 12.8946 4.73478 13 5 13Z" fill="#25398F"/>
<path d="M5 16H13C13.2652 16 13.5196 15.8946 13.7071 15.7071C13.8946 15.5196 14 15.2652 14 15C14 14.7348 13.8946 14.4804 13.7071 14.2929C13.5196 14.1054 13.2652 14 13 14H5C4.73478 14 4.48043 14.1054 4.29289 14.2929C4.10536 14.4804 4 14.7348 4 15C4 15.2652 4.10536 15.5196 4.29289 15.7071C4.48043 15.8946 4.73478 16 5 16Z" fill="#25398F"/>
<path d="M19 14H17C16.7348 14 16.4804 14.1054 16.2929 14.2929C16.1054 14.4804 16 14.7348 16 15C16 15.2652 16.1054 15.5196 16.2929 15.7071C16.4804 15.8946 16.7348 16 17 16H19C19.2652 16 19.5196 15.8946 19.7071 15.7071C19.8946 15.5196 20 15.2652 20 15C20 14.7348 19.8946 14.4804 19.7071 14.2929C19.5196 14.1054 19.2652 14 19 14Z" fill="#25398F"/>
</svg>
