<svg width="352" height="490" viewBox="0 0 352 490" fill="none" xmlns="http://www.w3.org/2000/svg">
<path d="M345.409 81.0485H325.63V41.5795C325.63 38.2655 322.943 35.5795 319.63 35.5795H298.977V6.00052C298.977 4.12152 298.096 2.35052 296.597 1.21552C295.099 0.0815187 293.154 -0.285481 291.346 0.226519L4.369 81.2745C1.785 82.0035 0 84.3625 0 87.0485V483.132C0 483.394 0.0210003 483.652 0.0550003 483.909C0.0570003 483.924 0.0549992 483.94 0.0569992 483.956C0.0619992 483.993 0.0760007 484.026 0.0820007 484.063C0.127001 484.351 0.193999 484.634 0.279999 484.911C0.297999 484.97 0.313 485.029 0.333 485.087C0.434 485.379 0.558003 485.661 0.702003 485.934C0.737004 486.001 0.776003 486.065 0.814003 486.13C0.952003 486.37 1.105 486.601 1.276 486.82C1.302 486.853 1.32301 486.888 1.35001 486.92C1.54301 487.158 1.76001 487.377 1.99001 487.584C2.04701 487.635 2.105 487.684 2.164 487.733C2.237 487.794 2.304 487.86 2.38 487.917C2.473 487.987 2.576 488.039 2.673 488.103C2.801 488.189 2.92601 488.273 3.06001 488.349C3.22801 488.444 3.402 488.523 3.578 488.601C3.713 488.661 3.845 488.724 3.985 488.774C4.185 488.845 4.39 488.896 4.596 488.946C4.721 488.976 4.842 489.016 4.971 489.038C5.31 489.096 5.653 489.132 5.998 489.132C5.998 489.132 6 489.132 6.002 489.132H345.411C348.724 489.132 351.411 486.445 351.411 483.132V87.0485C351.409 83.7345 348.723 81.0485 345.409 81.0485ZM313.63 47.5795V87.0485V461.623H104.298L165.042 444.467L294.607 407.875C294.901 407.792 295.179 407.682 295.449 407.56C295.498 407.538 295.548 407.517 295.596 407.493C295.857 407.366 296.107 407.223 296.343 407.063C296.377 407.04 296.408 407.016 296.441 406.992C296.675 406.826 296.897 406.648 297.103 406.453C297.113 406.444 297.123 406.436 297.133 406.427C297.341 406.227 297.529 406.011 297.705 405.785C297.738 405.743 297.771 405.701 297.803 405.658C297.968 405.433 298.12 405.2 298.252 404.955C298.274 404.915 298.292 404.872 298.313 404.832C298.436 404.591 298.545 404.343 298.635 404.087C298.644 404.062 298.655 404.039 298.663 404.014C298.756 403.739 298.824 403.456 298.876 403.168C298.885 403.121 298.893 403.074 298.901 403.026C298.947 402.735 298.972 402.439 298.974 402.14C298.974 402.127 298.977 402.114 298.977 402.101V47.5795H313.63ZM286.976 13.9295V41.5795V397.559L12 475.202V91.5885L286.976 13.9295ZM339.409 477.131H49.33L61.757 473.622H319.63C322.943 473.622 325.63 470.935 325.63 467.622V93.0485H339.409V477.131Z" fill="#25398F"/>
<path d="M68.7489 298.488C70.2479 299.623 72.1909 299.99 73.9989 299.478L120.322 286.402V342.299C120.322 344.178 121.202 345.949 122.701 347.083C123.755 347.881 125.03 348.299 126.323 348.299C126.867 348.299 127.416 348.225 127.951 348.073L174.242 335.013C176.827 334.284 178.613 331.925 178.613 329.239V269.951L228.201 255.922C230.784 255.192 232.567 252.833 232.567 250.149V195.432C232.567 193.552 231.686 191.781 230.187 190.647C228.688 189.512 226.744 189.146 224.935 189.658L178.613 202.749V146.833C178.613 144.953 177.732 143.182 176.233 142.048C174.734 140.913 172.792 140.546 170.981 141.059L124.691 154.14C122.107 154.87 120.323 157.228 120.323 159.914V219.22L70.7399 233.213C68.1549 233.942 66.3689 236.301 66.3689 238.987V293.704C66.3699 295.583 67.2499 297.354 68.7489 298.488ZM78.3699 243.528L127.953 229.535C130.538 228.806 132.324 226.447 132.324 223.761V164.454L166.614 154.764V210.68C166.614 212.56 167.495 214.331 168.994 215.465C170.494 216.6 172.435 216.965 174.246 216.454L220.568 203.363V245.611L170.981 259.64C168.398 260.37 166.614 262.729 166.614 265.413V324.698L132.324 334.372V278.474C132.324 276.595 131.444 274.824 129.945 273.69C128.891 272.892 127.617 272.474 126.324 272.474C125.779 272.474 125.231 272.548 124.695 272.7L78.3719 285.776V243.528H78.3699Z" fill="#CE2127"/>
</svg>
