<svg width="87" height="67" viewBox="0 0 87 67" fill="none" xmlns="http://www.w3.org/2000/svg">
<path d="M28.5379 0C26.4317 0 24.6941 1.73749 24.6941 3.84369V29.6247H0.756073C0.704148 29.6193 0.651798 29.6193 0.599873 29.6247C0.496227 29.6459 0.398233 29.6887 0.312329 29.7505C0.226424 29.8122 0.15455 29.8915 0.101428 29.983C0.0483051 30.0745 0.0151348 30.1761 0.00409529 30.2813C-0.00694421 30.3865 0.00439679 30.4929 0.0373733 30.5934L12.2254 66.4684C12.2723 66.6223 12.3675 66.7571 12.497 66.8528C12.6264 66.9485 12.7831 67 12.9441 66.9998H73.0691C73.2531 67.0007 73.4311 66.934 73.5691 66.8123C73.5797 66.8022 73.59 66.7919 73.6001 66.7812C73.6649 66.7183 73.7179 66.6441 73.7564 66.5624C73.767 66.5523 73.7773 66.542 73.7874 66.5314C73.7876 66.521 73.7876 66.5107 73.7874 66.5004C73.7876 66.49 73.7876 66.4797 73.7874 66.4694L73.8184 66.4075C73.8186 66.3971 73.8186 66.3868 73.8184 66.3765L85.9744 30.6264C86.0147 30.5124 86.0268 30.3903 86.0098 30.2705C85.9927 30.1507 85.9469 30.0369 85.8763 29.9387C85.8057 29.8404 85.7124 29.7607 85.6043 29.7064C85.4962 29.652 85.3766 29.6245 85.2557 29.6264H68.1937V3.8454C68.1937 1.7392 66.4561 0.00158691 64.3499 0.00158691H28.5379V0ZM28.5379 1.5H64.3499C65.6505 1.5 66.6936 2.54299 66.6936 3.84369V30.2817C66.6916 30.313 66.6916 30.3444 66.6936 30.3757V45.0637L61.6311 30.1257C61.5991 30.0573 61.5569 29.9941 61.5061 29.9382C61.4967 29.9171 61.4864 29.8964 61.4751 29.8762C61.4647 29.876 61.4544 29.876 61.4441 29.8762C61.434 29.8656 61.4237 29.8552 61.4131 29.8452C61.3936 29.8234 61.3729 29.8026 61.3511 29.7832C61.341 29.7726 61.3307 29.7622 61.3201 29.7522C61.3097 29.752 61.2994 29.752 61.2891 29.7522C61.2689 29.7409 61.2482 29.7306 61.2271 29.7212C61.2167 29.721 61.2064 29.721 61.1961 29.7212C61.186 29.7106 61.1757 29.7002 61.1651 29.6902C61.1547 29.69 61.1444 29.69 61.1341 29.6902C61.124 29.6796 61.1137 29.6693 61.1031 29.6592C61.0927 29.659 61.0824 29.659 61.0721 29.6592C61.0617 29.659 61.0514 29.659 61.0411 29.6592C61.0307 29.659 61.0204 29.659 61.0101 29.6592C60.9795 29.6468 60.9481 29.6365 60.9161 29.6282H26.1971V3.84723C26.1971 2.54653 27.2403 1.50342 28.5408 1.50342L28.5379 1.5ZM30.5066 4.03119V6.125H28.4441V8.1875H30.5066V10.2812H32.6004V8.1875H34.6629V6.125H32.6004V4.03119H30.5066ZM39.3816 7.5625L38.9754 7.78119L38.9134 8.21869L39.2571 8.53119L39.3821 8.56219H43.3821L43.7884 8.34351L43.8504 7.87469L43.4754 7.56219H43.3814L39.3816 7.5625ZM45.3816 7.5625L44.9754 7.78119L44.9134 8.21869L45.2571 8.53119L45.3821 8.56219H46.3821L46.7884 8.34351L46.8504 7.87469L46.4754 7.56219H46.3814L45.3816 7.5625ZM48.3816 7.5625L47.9754 7.78119L47.9134 8.21869L48.2571 8.53119L48.3821 8.56219H52.3821L52.7884 8.34351L52.8504 7.87469L52.4754 7.56219H52.3814L48.3816 7.5625ZM54.3816 7.5625L53.9754 7.78119L53.9134 8.21869L54.2571 8.53119L54.3821 8.56219H55.3821L55.7884 8.34351L55.8504 7.87469L55.4754 7.56219H55.3814L54.3816 7.5625ZM57.3816 7.5625L56.9754 7.78119L56.9134 8.21869L57.2571 8.53119L57.3821 8.56219H59.6321L60.0384 8.34351L60.0694 7.87469L59.7256 7.56219H59.6316L57.3816 7.5625ZM32.6006 15.5C32.468 15.5166 32.3474 15.5852 32.2653 15.6907C32.1833 15.7962 32.1465 15.9299 32.1631 16.0625C32.1796 16.1951 32.2482 16.3157 32.3537 16.3978C32.4592 16.4798 32.593 16.5166 32.7256 16.5H60.1636C60.2298 16.5009 60.2956 16.4887 60.3571 16.464C60.4186 16.4393 60.4745 16.4026 60.5217 16.3561C60.5689 16.3096 60.6064 16.2541 60.632 16.193C60.6575 16.1319 60.6707 16.0663 60.6707 16C60.6707 15.9337 60.6575 15.8681 60.632 15.807C60.6064 15.7459 60.5689 15.6904 60.5217 15.6439C60.4745 15.5974 60.4186 15.5607 60.3571 15.536C60.2956 15.5113 60.2298 15.4991 60.1636 15.5H32.7256C32.6841 15.4948 32.6421 15.4948 32.6006 15.5ZM32.6006 19.5625C32.468 19.5791 32.3474 19.6477 32.2653 19.7532C32.1833 19.8587 32.1465 19.9924 32.1631 20.125C32.1796 20.2576 32.2482 20.3782 32.3537 20.4603C32.4592 20.5423 32.593 20.5791 32.7256 20.5625H60.1636C60.2298 20.5634 60.2956 20.5512 60.3571 20.5265C60.4186 20.5018 60.4745 20.4651 60.5217 20.4186C60.5689 20.3721 60.6064 20.3166 60.632 20.2555C60.6575 20.1944 60.6707 20.1288 60.6707 20.0625C60.6707 19.9962 60.6575 19.9306 60.632 19.8695C60.6064 19.8084 60.5689 19.7529 60.5217 19.7064C60.4745 19.6599 60.4186 19.6232 60.3571 19.5985C60.2956 19.5738 60.2298 19.5616 60.1636 19.5625H32.7256C32.6841 19.5573 32.6421 19.5573 32.6006 19.5625ZM32.6006 23.625C32.5349 23.6332 32.4715 23.6543 32.414 23.687C32.3565 23.7197 32.306 23.7634 32.2653 23.8157C32.2247 23.8679 32.1948 23.9276 32.1772 23.9914C32.1597 24.0552 32.1549 24.1218 32.1631 24.1875C32.1713 24.2532 32.1923 24.3166 32.2251 24.3741C32.2578 24.4316 32.3015 24.4821 32.3537 24.5228C32.4059 24.5634 32.4657 24.5934 32.5295 24.6109C32.5933 24.6284 32.6599 24.6332 32.7256 24.625H60.1636C60.2298 24.6259 60.2956 24.6137 60.3571 24.589C60.4186 24.5643 60.4745 24.5276 60.5217 24.4811C60.5689 24.4346 60.6064 24.3791 60.632 24.318C60.6575 24.2569 60.6707 24.1913 60.6707 24.125C60.6707 24.0587 60.6575 23.9931 60.632 23.932C60.6064 23.8709 60.5689 23.8154 60.5217 23.7689C60.4745 23.7224 60.4186 23.6857 60.3571 23.661C60.2956 23.6363 60.2298 23.6241 60.1636 23.625H32.7256C32.6841 23.6198 32.6421 23.6198 32.6006 23.625ZM1.81957 31.125H60.3506L66.6943 49.75C66.701 49.7925 66.7114 49.8343 66.7253 49.875C66.7448 49.9524 66.7765 50.0263 66.8193 50.0937L69.4443 57.875L72.0381 65.5H13.4761L1.81957 31.125ZM68.1946 31.125H84.1946L73.0696 63.906L68.1946 49.5V31.125Z" fill="#25398F"/>
</svg>
