<svg width="471" height="480" viewBox="0 0 471 480" fill="none" xmlns="http://www.w3.org/2000/svg">
<path d="M235.304 208C253.004 208 267.304 193.7 267.304 176H251.304C251.304 184.8 244.104 192 235.304 192C226.504 192 219.304 184.8 219.304 176H203.304C203.304 193.7 217.604 208 235.304 208Z" fill="#CE2127"/>
<path d="M469.804 449.9L441.704 343.1C436.904 324.8 423.204 310.2 405.304 304.2L291.404 266.2V228.9C320.904 214 339.504 183.6 339.404 150.5V150.2L351.704 147.1C365.604 143.6 374.104 129.5 370.604 115.6C367.704 104 357.304 95.9 345.404 95.9H339.404V0H175.304C151.004 0 131.304 19.7 131.304 44V96H125.304C111.004 96 99.3041 107.6 99.3041 122C99.3041 133.9 107.404 144.3 119.004 147.2L131.304 150.3V150.6C131.204 183.7 149.804 214 179.304 229V266.3L65.4041 304.3C47.5041 310.2 33.7041 324.9 29.0041 343.2L0.804096 449.9C-2.5959 462.7 5.10409 475.8 17.9041 479.2C19.9041 479.7 21.9041 480 24.0041 480H446.504C459.804 480 470.504 469.3 470.504 456C470.504 453.9 470.304 451.9 469.804 449.9ZM339.304 112H345.304C350.804 112 355.304 116.5 355.304 122C355.304 126.6 352.204 130.6 347.704 131.7L339.304 133.8V112ZM131.304 133.8L122.904 131.7C117.604 130.4 114.304 125 115.604 119.6C116.704 115.2 120.704 112 125.304 112H131.304V133.8ZM307.304 416V402.2C315.004 406.6 317.604 416.4 313.204 424.1C308.804 431.8 299.004 434.4 291.304 430C283.604 425.6 281.004 415.8 285.404 408.1C286.804 405.7 288.804 403.6 291.304 402.2V416H307.304ZM323.304 75.1L276.404 51.7L309.804 44.7C314.604 43.7 319.204 41.7 323.304 38.9V75.1ZM147.304 44C147.304 28.5 159.804 16 175.304 16H321.904C319.304 22.6 313.604 27.5 306.604 29L147.304 62.2V44ZM147.304 78.5L251.204 56.9L323.304 93V112H306.304C301.904 94.9 284.404 84.6 267.304 89C256.004 91.9 247.204 100.7 244.304 112H226.304C221.904 94.9 204.404 84.6 187.304 89C176.004 91.9 167.204 100.7 164.304 112H147.304V78.5ZM291.304 120C291.304 128.8 284.104 136 275.304 136C266.504 136 259.304 128.8 259.304 120C259.304 111.2 266.504 104 275.304 104C284.104 104 291.304 111.2 291.304 120ZM211.304 120C211.304 128.8 204.104 136 195.304 136C186.504 136 179.304 128.8 179.304 120C179.304 111.2 186.504 104 195.304 104C204.104 104 211.304 111.2 211.304 120ZM147.304 150.6V128H164.304C168.704 145.1 186.204 155.4 203.304 151C214.604 148.1 223.404 139.3 226.304 128H244.304C248.704 145.1 266.204 155.4 283.304 151C294.604 148.1 303.404 139.3 306.304 128H323.304V150.6C323.404 177.9 308.004 202.9 283.504 215L253.204 230.2C241.904 235.8 228.704 235.8 217.404 230.2L187.104 215C162.604 202.8 147.204 177.9 147.304 150.6ZM275.304 236.9V268L273.704 269.2C254.604 283.6 242.204 305 239.204 328.7L236.304 352H234.404L231.504 328.7C228.504 305 216.004 283.6 197.004 269.2L195.304 268V236.9L210.304 244.4C226.104 252.2 244.604 252.2 260.404 244.4L275.304 236.9ZM452.904 460.9C451.404 462.9 449.004 464 446.604 464H371.304V384H355.304V464H115.304V384H99.3041V464H24.1041C19.7041 464 16.1041 460.4 16.1041 456C16.1041 455.3 16.2041 454.6 16.4041 454L44.5041 347.2C47.9041 334.1 57.7041 323.7 70.5041 319.4L163.304 288.5V344.9C144.704 348.7 131.304 365.1 131.304 384.1V424.1C131.304 437.3 142.104 448.1 155.304 448.1H163.304V432.1H155.304C150.904 432.1 147.304 428.5 147.304 424.1V384.1C147.304 370.8 158.004 360.1 171.304 360.1C184.604 360.1 195.304 370.8 195.304 384.1V424.1C195.304 428.5 191.704 432.1 187.304 432.1H179.304V448.1H187.304C200.504 448.1 211.304 437.3 211.304 424.1V384.1C211.304 365.1 197.904 348.7 179.304 344.9V283.2L185.904 281L187.404 282.1C203.004 293.8 213.204 311.4 215.604 330.8L220.304 368.1H250.404L255.104 330.8C257.604 311.4 267.804 293.9 283.304 282.1L284.804 281L291.404 283.2V385C274.304 389.4 264.004 406.9 268.404 424C272.804 441.1 290.304 451.4 307.404 447C324.504 442.6 334.804 425.1 330.404 408C327.504 396.7 318.704 387.9 307.404 385V288.4L400.204 319.3C413.004 323.5 422.804 334 426.204 347.1L454.304 454C454.904 456.4 454.404 458.9 452.904 460.9Z" fill="#25398F"/>
</svg>
