<svg width="73" height="79" viewBox="0 0 73 79" fill="none" xmlns="http://www.w3.org/2000/svg">
<path d="M36.038 43.236C25.791 43.236 17.455 32.212 17.455 18.662C17.455 6.627 24.055 0 36.038 0C48.021 0 54.622 6.627 54.622 18.662C54.622 32.212 46.285 43.236 36.038 43.236ZM36.038 3C25.698 3 20.455 8.27 20.455 18.662C20.455 30.558 27.446 40.236 36.038 40.236C44.631 40.236 51.622 30.558 51.622 18.662C51.622 8.27 46.378 3 36.038 3Z" fill="#25398F"/>
<path d="M27.056 63.968C26.227 63.968 25.556 63.297 25.556 62.468C25.556 59.736 23.881 57.428 21.899 57.428C19.917 57.428 18.243 59.736 18.243 62.468C18.243 63.297 17.572 63.968 16.743 63.968C15.914 63.968 15.243 63.297 15.243 62.468C15.243 58.035 18.229 54.428 21.899 54.428C25.569 54.428 28.556 58.035 28.556 62.468C28.556 63.297 27.884 63.968 27.056 63.968Z" fill="#25398F"/>
<path d="M51.75 64.976C51.69 64.976 51.63 64.973 51.57 64.965C50.748 64.867 50.16 64.12 50.259 63.298C51.036 56.798 50.209 50.759 49.379 46.838C49.207 46.027 49.725 45.231 50.535 45.06C51.346 44.886 52.142 45.406 52.313 46.216C53.191 50.36 54.063 56.748 53.237 63.655C53.147 64.416 52.499 64.976 51.75 64.976Z" fill="#25398F"/>
<path d="M22.218 57.428C21.469 57.428 20.822 56.868 20.731 56.106C20.121 51.003 20.428 49.586 21.07 47.325C21.25 46.693 21.454 45.977 21.655 45.027C21.827 44.217 22.621 43.697 23.433 43.871C24.243 44.042 24.761 44.839 24.589 45.649C24.367 46.699 24.148 47.468 23.955 48.146C23.431 49.991 23.142 51.008 23.708 55.75C23.807 56.573 23.219 57.319 22.397 57.417C22.338 57.425 22.278 57.428 22.218 57.428Z" fill="#25398F"/>
<path d="M51.725 72.515C49.208 72.515 47.161 70.468 47.161 67.951C47.161 65.435 49.208 63.388 51.725 63.388C54.242 63.388 56.289 65.435 56.289 67.951C56.289 70.468 54.242 72.515 51.725 72.515ZM51.725 65.387C50.311 65.387 49.161 66.537 49.161 67.95C49.161 69.364 50.311 70.514 51.725 70.514C53.139 70.514 54.289 69.364 54.289 67.95C54.289 66.537 53.139 65.387 51.725 65.387Z" fill="#CE2127"/>
<path d="M51.725 69.685C50.769 69.685 49.992 68.907 49.992 67.951C49.992 66.995 50.77 66.218 51.725 66.218C52.681 66.218 53.459 66.995 53.459 67.951C53.458 68.907 52.681 69.685 51.725 69.685ZM51.725 67.218C51.321 67.218 50.992 67.547 50.992 67.951C50.992 68.356 51.321 68.685 51.725 68.685C52.13 68.685 52.459 68.355 52.459 67.951C52.458 67.546 52.129 67.218 51.725 67.218Z" fill="#CE2127"/>
<path d="M26.835 67.249L25.587 66.417C27.278 63.88 26.362 61.317 26.352 61.292L27.759 60.772C27.809 60.905 28.945 64.084 26.835 67.249Z" fill="#25398F"/>
<path d="M16.226 67.486C15.085 65.031 15.973 61.034 16.011 60.865L17.474 61.197C17.466 61.234 16.661 64.865 17.586 66.854L16.226 67.486Z" fill="#25398F"/>
<path d="M17.124 69.365C17.9049 69.365 18.538 68.7319 18.538 67.951C18.538 67.1701 17.9049 66.537 17.124 66.537C16.3431 66.537 15.71 67.1701 15.71 67.951C15.71 68.7319 16.3431 69.365 17.124 69.365Z" fill="#CE2127"/>
<path d="M26.196 69.227C27.1719 69.227 27.963 68.4359 27.963 67.46C27.963 66.4841 27.1719 65.693 26.196 65.693C25.2201 65.693 24.429 66.4841 24.429 67.46C24.429 68.4359 25.2201 69.227 26.196 69.227Z" fill="#CE2127"/>
<path d="M72.076 78.878H0V77.378C0 61.248 10.842 46.968 26.365 42.653L26.688 42.564L28.379 42.851L28.698 43.13C30.892 45.048 32.754 45.664 36.36 45.664C40.236 45.664 41.854 44.876 43.82 43.221L44.139 42.952L45.827 42.685L46.149 42.779C61.414 47.233 72.075 61.461 72.075 77.379V78.878H72.076ZM3.034 75.878H69.041C68.403 62.009 58.971 49.795 45.628 45.753L45.423 45.785C42.792 47.903 40.367 48.662 36.36 48.662C32.184 48.662 29.693 47.872 27.051 45.667L26.849 45.633C13.271 49.557 3.674 61.821 3.034 75.878Z" fill="#25398F"/>
<path d="M37.999 47.633H34.999V76.515H37.999V47.633Z" fill="#25398F"/>
</svg>
