<svg width="488" height="488" viewBox="0 0 488 488" fill="none" xmlns="http://www.w3.org/2000/svg">
<path d="M20.042 213.364C12.276 205.599 8 195.229 8 184.163C8 173.097 12.277 162.725 20.044 154.959L154.818 20.039C162.575 12.275 172.938 7.999 184 7.999C195.062 7.999 205.424 12.275 213.181 20.039L275.524 82.441C277.086 84.004 279.618 84.006 281.181 82.443C282.744 80.882 282.744 78.349 281.184 76.786L218.84 14.385C209.572 5.109 197.199 0 184 0C170.801 0 158.427 5.109 149.159 14.386L14.386 149.303C5.109 158.579 0 170.96 0 184.163C0 197.366 5.109 209.746 14.384 219.02L116.43 321.17C117.211 321.952 118.236 322.343 119.26 322.343C120.283 322.343 121.306 321.953 122.087 321.173C123.65 319.611 123.651 317.079 122.09 315.516L20.042 213.364Z" fill="#25398F"/>
<path d="M467.51 274.606C475.267 282.371 479.539 292.742 479.539 303.809C479.539 314.875 475.267 325.247 467.51 333.015L434.115 366.445C432.553 368.008 432.555 370.541 434.118 372.102C434.899 372.882 435.922 373.272 436.945 373.272C437.969 373.272 438.994 372.88 439.775 372.099L473.17 338.669C482.437 329.391 487.539 317.011 487.539 303.81C487.539 290.608 482.435 278.228 473.17 268.953L309.456 105.085C307.894 103.522 305.362 103.521 303.799 105.083C302.236 106.644 302.236 109.177 303.796 110.74L467.51 274.606Z" fill="#25398F"/>
<path d="M124.75 192.001V191.997L117.9 166.412C117.703 165.677 117.477 164.955 117.223 164.248C113.409 153.649 103.276 146.426 91.839 146.426C91.839 146.426 91.837 146.426 91.835 146.426H91.832C89.668 146.426 87.508 146.702 85.393 147.227C85.245 147.264 85.095 147.291 84.947 147.331H84.945C84.942 147.332 84.939 147.332 84.935 147.333C82.603 147.961 80.419 148.898 78.404 150.075C78.365 150.098 78.328 150.123 78.289 150.146C77.719 150.482 77.161 150.834 76.62 151.209C76.483 151.304 76.355 151.408 76.22 151.505C75.782 151.821 75.347 152.14 74.93 152.481C74.716 152.656 74.515 152.844 74.306 153.025C73.981 153.308 73.652 153.587 73.342 153.884C73.073 154.141 72.821 154.415 72.563 154.683C72.329 154.926 72.088 155.162 71.864 155.413C71.562 155.751 71.281 156.106 70.996 156.458C70.833 156.66 70.662 156.854 70.505 157.06C70.192 157.473 69.901 157.902 69.611 158.331C69.501 158.495 69.381 158.652 69.275 158.818C68.968 159.296 68.685 159.79 68.408 160.287C68.335 160.418 68.253 160.544 68.182 160.677C67.897 161.209 67.639 161.755 67.39 162.306C67.341 162.415 67.283 162.519 67.235 162.629C66.986 163.201 66.764 163.785 66.554 164.376C66.519 164.473 66.476 164.566 66.443 164.664C66.235 165.269 66.057 165.886 65.892 166.507C65.869 166.596 65.837 166.681 65.814 166.77C65.651 167.412 65.518 168.064 65.402 168.722C65.389 168.794 65.369 168.865 65.357 168.937C65.234 169.666 65.141 170.402 65.079 171.146C65.079 171.148 65.078 171.151 65.078 171.154C65.015 171.904 64.982 172.66 64.982 173.423C64.982 175.754 65.289 178.085 65.896 180.352L79.594 231.528C82.755 243.278 93.454 251.485 105.612 251.485C107.884 251.485 110.155 251.192 112.366 250.613C112.437 250.598 112.507 250.581 112.577 250.562C124.313 247.399 132.51 236.688 132.51 224.515C132.51 222.182 132.203 219.849 131.596 217.579L124.75 192.001ZM73.627 178.286C73.201 176.696 72.985 175.06 72.985 173.425C72.985 169.023 74.509 164.898 77.099 161.618C79.557 158.512 82.974 156.169 86.988 155.098C87.103 155.067 87.214 155.027 87.325 154.986C87.501 154.942 87.678 154.902 87.854 154.863C88.021 154.827 88.187 154.789 88.355 154.758C88.572 154.716 88.791 154.683 89.009 154.65C89.177 154.624 89.345 154.595 89.514 154.574C89.75 154.544 89.988 154.524 90.225 154.504C90.375 154.491 90.524 154.473 90.674 154.464C91.036 154.442 91.398 154.43 91.76 154.428C91.785 154.428 91.81 154.426 91.835 154.426C100.419 154.427 107.96 160.205 110.172 168.479L112.961 178.897L115.988 190.203L79.441 200.005L73.627 178.286ZM110.662 242.795C110.6 242.809 110.539 242.824 110.478 242.84C108.886 243.269 107.249 243.487 105.615 243.487C97.068 243.487 89.546 237.716 87.323 229.457L81.509 207.734L118.057 197.931L123.871 219.649C124.297 221.244 124.513 222.882 124.513 224.518C124.513 233.025 118.826 240.516 110.662 242.795Z" fill="#25398F"/>
<path d="M160.906 275.43L174.604 326.6C177.748 338.355 188.444 346.564 200.616 346.564C202.891 346.564 205.166 346.27 207.381 345.691C207.447 345.677 207.513 345.662 207.578 345.644C219.319 342.512 227.52 331.797 227.52 319.587C227.52 317.255 227.213 314.924 226.607 312.657L212.907 261.482C209.746 249.731 199.048 241.524 186.891 241.524C186.889 241.524 186.887 241.524 186.884 241.524C186.883 241.524 186.881 241.524 186.879 241.524C186.73 241.524 186.582 241.536 186.433 241.539C186.012 241.546 185.59 241.554 185.17 241.581C184.776 241.606 184.385 241.652 183.993 241.695C183.818 241.715 183.642 241.725 183.468 241.747C182.994 241.809 182.523 241.89 182.053 241.976C181.964 241.992 181.874 242.003 181.785 242.02C181.276 242.119 180.771 242.238 180.268 242.366C180.224 242.378 180.178 242.385 180.133 242.397C180.075 242.409 180.017 242.424 179.96 242.439C179.952 242.441 179.943 242.442 179.935 242.445C179.932 242.446 179.927 242.446 179.924 242.447C179.844 242.468 179.77 242.498 179.691 242.521C168.081 245.733 159.991 256.37 159.991 268.491V268.493C159.992 270.829 160.299 273.162 160.906 275.43ZM168.016 267.921C168.026 267.583 168.031 267.245 168.058 266.911C168.666 259.634 173.433 253.327 180.237 250.751C180.278 250.735 180.318 250.716 180.359 250.701C180.682 250.581 181.016 250.482 181.347 250.38C181.546 250.319 181.74 250.249 181.941 250.194C181.97 250.187 182 250.18 182.029 250.173C183.618 249.744 185.252 249.527 186.885 249.526C195.436 249.529 202.96 255.299 205.18 263.557L210.996 285.279L174.448 295.082L168.634 273.364C168.405 272.506 168.241 271.634 168.134 270.758C168.043 270.006 167.991 269.251 167.991 268.495C167.992 268.302 168.01 268.112 168.016 267.921ZM205.676 337.871C205.613 337.885 205.551 337.9 205.489 337.917C203.893 338.347 202.254 338.564 200.616 338.564C192.06 338.564 184.542 332.794 182.332 324.533L176.517 302.809L213.065 293.006L218.879 314.724C219.304 316.316 219.52 317.953 219.52 319.587C219.52 328.124 213.836 335.619 205.676 337.871Z" fill="#25398F"/>
<path d="M281.856 336.616C279.529 336.616 277.204 336.921 274.932 337.525C263.192 340.692 254.993 351.396 254.993 363.555C254.993 365.895 255.304 368.236 255.914 370.506L256.178 371.492L262.744 396.088C262.755 396.13 262.776 396.167 262.789 396.208L269.613 421.719C272.763 433.462 283.48 441.664 295.674 441.664C297.992 441.664 300.311 441.36 302.577 440.757C314.317 437.592 322.516 426.887 322.516 414.725C322.516 412.385 322.205 410.044 321.595 407.774L307.898 356.565C304.756 344.819 294.047 336.616 281.856 336.616ZM277.003 345.253C278.59 344.83 280.223 344.616 281.856 344.616C290.431 344.616 297.962 350.38 300.169 358.632L305.984 380.391L269.45 390.158L263.639 368.435C263.209 366.836 262.992 365.195 262.992 363.556C262.993 355.004 268.759 347.476 277.003 345.253ZM300.507 433.03C298.923 433.451 297.297 433.665 295.673 433.665C287.093 433.665 279.553 427.9 277.34 419.65L271.518 397.885L308.056 388.116L313.869 409.845C314.299 411.444 314.516 413.085 314.516 414.724C314.516 423.279 308.75 430.807 300.507 433.03Z" fill="#25398F"/>
<path d="M231.311 79.676L205.919 72.866C205.86 72.847 205.806 72.817 205.746 72.801L180.543 66.06L180.191 65.966C177.917 65.354 175.578 65.043 173.238 65.043C169.518 65.043 165.939 65.818 162.668 67.218C162.595 67.249 162.518 67.273 162.445 67.305C162.259 67.386 162.083 67.485 161.9 67.571C154.839 70.86 149.334 77.128 147.229 85.001V85.004L147.228 85.006C147.215 85.056 147.206 85.108 147.193 85.158C146.609 87.383 146.308 89.67 146.308 91.96C146.308 103.075 153.129 112.929 163.219 116.96C163.511 117.077 163.795 117.209 164.093 117.315C164.242 117.368 164.399 117.406 164.549 117.457C165.109 117.647 165.671 117.833 166.248 117.987H166.25H166.251L166.318 118.005L191.811 124.861C191.916 124.889 192.022 124.904 192.128 124.924L217.389 131.696C219.659 132.309 221.996 132.619 224.336 132.619C236.494 132.619 247.192 124.412 250.355 112.656C250.96 110.394 251.267 108.063 251.267 105.727C251.267 93.518 243.058 82.804 231.311 79.676ZM168.315 110.26C160.071 108.066 154.314 100.534 154.314 91.945C154.314 90.306 154.53 88.668 154.957 87.073C155.233 86.04 155.592 85.047 156.026 84.098C159.062 77.46 165.754 73.042 173.24 73.042C174.877 73.042 176.516 73.26 178.118 73.691L178.907 73.902L199.812 79.508L190.026 116.078L168.315 110.26ZM242.628 110.585C240.405 118.85 232.883 124.622 224.336 124.622C222.7 124.622 221.064 124.404 219.467 123.973L197.753 118.152L207.539 81.583L229.247 87.405C237.502 89.604 243.268 97.139 243.268 105.73C243.267 107.367 243.052 109.002 242.628 110.585Z" fill="#25398F"/>
<path d="M242.23 180.039C242.226 180.054 242.22 180.068 242.216 180.083C241.61 182.348 241.303 184.679 241.303 187.012C241.303 199.221 249.503 209.936 261.238 213.065L312.39 226.817C314.643 227.417 316.961 227.721 319.281 227.721C331.479 227.721 342.197 219.502 345.344 207.733C345.949 205.467 346.257 203.134 346.257 200.8C346.257 188.627 338.06 177.916 326.319 174.753L275.19 161.04C272.928 160.438 270.603 160.133 268.278 160.133H268.277C268.247 160.133 268.217 160.137 268.187 160.137C267.46 160.139 266.739 160.168 266.024 160.227C265.675 160.256 265.334 160.314 264.988 160.356C264.597 160.404 264.204 160.439 263.817 160.503C263.356 160.58 262.904 160.689 262.45 160.789C262.19 160.847 261.925 160.89 261.668 160.955C261.139 161.089 260.621 161.253 260.105 161.417C259.931 161.473 259.752 161.515 259.581 161.574C259.01 161.768 258.452 161.992 257.898 162.223C257.788 162.269 257.673 162.306 257.564 162.353C256.962 162.614 256.375 162.901 255.794 163.204C255.739 163.233 255.682 163.257 255.627 163.286C255.005 163.616 254.398 163.971 253.806 164.348C253.796 164.354 253.786 164.359 253.777 164.365C248.238 167.888 244.02 173.392 242.23 180.039ZM249.369 185.54C249.393 185.238 249.42 184.937 249.458 184.637C249.478 184.492 249.503 184.348 249.525 184.203C249.562 183.958 249.599 183.714 249.646 183.471C249.678 183.303 249.717 183.135 249.754 182.967C249.797 182.772 249.841 182.576 249.891 182.383C249.916 182.306 249.942 182.229 249.963 182.151C252.169 173.898 259.7 168.134 268.277 168.134C269.907 168.134 271.541 168.349 273.121 168.769L294.822 174.605L285.028 211.173L263.324 205.337C255.069 203.139 249.303 195.605 249.303 187.013C249.303 186.613 249.317 186.212 249.342 185.813C249.349 185.722 249.362 185.631 249.369 185.54ZM338.257 200.801C338.257 202.438 338.041 204.075 337.615 205.668C335.402 213.943 327.862 219.722 319.28 219.722C317.655 219.722 316.03 219.509 314.457 219.09L292.754 213.255L302.554 176.663L324.242 182.48C332.494 184.702 338.257 192.236 338.257 200.801Z" fill="#25398F"/>
<path d="M414.307 322.802C426.501 322.802 437.21 314.598 440.349 302.852C440.954 300.587 441.262 298.255 441.262 295.921C441.262 283.711 433.061 272.997 421.328 269.87L370.177 256.117C367.926 255.517 365.608 255.214 363.287 255.214H363.286C354.138 255.214 345.821 259.837 340.906 267.113C339.268 269.539 338.009 272.259 337.221 275.201C336.615 277.469 336.308 279.798 336.308 282.125V282.129C336.308 282.131 336.308 282.133 336.308 282.135C336.308 294.264 344.446 304.935 356.118 308.142C356.162 308.154 356.204 308.171 356.249 308.183L356.473 308.243L407.397 321.895C409.658 322.496 411.982 322.802 414.307 322.802ZM433.262 295.921C433.262 297.558 433.046 299.193 432.62 300.785C430.415 309.038 422.884 314.802 414.307 314.802C412.677 314.802 411.044 314.587 409.462 314.166L387.754 308.347L397.539 271.759L419.259 277.599C427.504 279.796 433.262 287.33 433.262 295.921ZM344.951 277.266C345.09 276.748 345.249 276.242 345.428 275.745C348.111 268.294 355.241 263.214 363.288 263.214C364.013 263.214 364.737 263.263 365.458 263.347C365.545 263.358 365.632 263.362 365.719 263.373C365.77 263.379 365.82 263.391 365.87 263.397C366.624 263.502 367.373 263.649 368.109 263.845L373.326 265.247L389.813 269.683L380.032 306.257L358.325 300.455C350.074 298.228 344.311 290.693 344.309 282.128C344.31 280.494 344.526 278.857 344.951 277.266Z" fill="#25398F"/>
<path d="M364.873 369.216C365.895 369.216 366.919 368.826 367.7 368.046C369.263 366.484 369.264 363.952 367.703 362.389L125.491 119.932C123.929 118.369 121.397 118.368 119.834 119.929C118.271 121.491 118.27 124.023 119.831 125.586L362.042 368.043C362.824 368.825 363.848 369.216 364.873 369.216Z" fill="#CE2127"/>
<path d="M473.112 479.964H330.552C333.349 478.13 335.979 476.005 338.395 473.589L411.506 400.4C413.068 398.837 413.066 396.304 411.503 394.743C409.94 393.182 407.407 393.183 405.846 394.746L332.737 467.934C325.075 475.595 314.878 479.852 303.981 479.965H303.092C292.198 479.852 282.006 475.596 274.355 467.936L150.36 343.813C148.798 342.249 146.266 342.248 144.703 343.81C143.14 345.372 143.139 347.904 144.7 349.467L268.695 473.589C271.108 476.004 273.736 478.13 276.53 479.964H138.252C136.043 479.964 134.252 481.755 134.252 483.964C134.252 486.173 136.043 487.964 138.252 487.964H303.092C303.24 487.965 303.388 487.975 303.536 487.975C303.684 487.975 303.832 487.965 303.98 487.964H473.111C475.32 487.964 477.111 486.173 477.111 483.964C477.111 481.755 475.321 479.964 473.112 479.964Z" fill="#25398F"/>
</svg>
