<svg width="468" height="336" viewBox="0 0 468 336" fill="none" xmlns="http://www.w3.org/2000/svg">
<path d="M89.6 110.8C97.8 110.8 104.5 104.1 104.5 95.9V74.7V50.8C104.5 42.6 97.8 35.9 89.6 35.9C81.4 35.9 74.7 42.6 74.7 50.8V74.7V95.9C74.7 104.1 81.4 110.8 89.6 110.8ZM82.7 95.9V78.7H96.6V95.9C96.6 99.7 93.5 102.8 89.7 102.8C85.9 102.8 82.7 99.7 82.7 95.9ZM89.6 43.9C93.4 43.9 96.5 47 96.5 50.8V70.7H82.6V50.8C82.7 47 85.8 43.9 89.6 43.9Z" fill="#25398F"/>
<path d="M175.8 110.8C184 110.8 190.7 104.1 190.7 95.9V74.7V50.8C190.7 42.6 184 35.9 175.8 35.9C171.8 35.9 168.1 37.5 165.3 40.3C162.5 43.1 160.9 46.9 160.9 50.8V74.7V95.9C160.9 104.1 167.6 110.8 175.8 110.8ZM175.8 102.8C172 102.8 168.9 99.7 168.9 95.9V78.7H182.8V95.9C182.8 96.9 182.6 97.8 182.3 98.6C181.1 101 178.7 102.8 175.8 102.8ZM170.9 45.9C172.2 44.6 174 43.9 175.8 43.9C179.6 43.9 182.7 47 182.7 50.8V70.7H168.8V50.8C168.9 48.9 169.6 47.2 170.9 45.9Z" fill="#25398F"/>
<path d="M89.6 205.7C97.1 205.7 103.3 200.2 104.3 193C104.4 192.3 104.5 191.5 104.5 190.8V169.6V145.7C104.5 137.5 97.8 130.8 89.6 130.8C81.4 130.8 74.7 137.5 74.7 145.7V169.6V190.8C74.7 199 81.4 205.7 89.6 205.7ZM96.6 190.7C96.6 191.1 96.6 191.4 96.5 191.7C96 195 93.1 197.6 89.7 197.6C85.9 197.6 82.8 194.5 82.8 190.7V173.5H96.7V190.7H96.6ZM89.6 138.8C93.4 138.8 96.5 141.9 96.5 145.7V165.6H82.6V145.7C82.7 141.9 85.8 138.8 89.6 138.8Z" fill="#25398F"/>
<path d="M175.8 205.7C184 205.7 190.7 199 190.7 190.7V169.5V145.6C190.7 137.4 184 130.7 175.8 130.7C171.8 130.7 168.1 132.3 165.3 135.1C162.5 137.9 160.9 141.7 160.9 145.6V169.5V190.7C160.9 191.5 161 192.2 161.1 193C162.2 200.2 168.4 205.7 175.8 205.7ZM182.8 190.7C182.8 194.5 179.7 197.6 175.9 197.6C172.4 197.6 169.6 195.1 169.1 191.7C169 191.4 169 191 169 190.6V173.4H182.9V190.7H182.8ZM170.9 140.8C172.2 139.5 174 138.8 175.8 138.8C179.6 138.8 182.7 141.9 182.7 145.7V165.6H168.8V145.7C168.9 143.9 169.6 142.1 170.9 140.8Z" fill="#25398F"/>
<path d="M89.6 300.6C97.8 300.6 104.5 293.9 104.5 285.7V264.5V240.6C104.5 232.4 97.8 225.7 89.6 225.7C81.4 225.7 74.7 232.4 74.7 240.6V264.5V285.7C74.7 293.9 81.4 300.6 89.6 300.6ZM82.7 285.6V268.4H96.6V285.6C96.6 289.4 93.5 292.5 89.7 292.5C85.9 292.5 82.7 289.5 82.7 285.6ZM89.6 233.6C93.4 233.6 96.5 236.7 96.5 240.5V260.4H82.6V240.5C82.7 236.7 85.8 233.6 89.6 233.6Z" fill="#25398F"/>
<path d="M175.8 300.6C184 300.6 190.7 293.9 190.7 285.7V264.5V240.6C190.7 232.4 184 225.7 175.8 225.7C171.8 225.7 168.1 227.3 165.3 230.1C162.5 232.9 160.9 236.7 160.9 240.6V264.5V285.7C160.9 293.9 167.6 300.6 175.8 300.6ZM175.8 292.6C172 292.6 168.9 289.5 168.9 285.7V268.5H182.8V285.7C182.8 286.7 182.6 287.6 182.3 288.4C181.1 290.8 178.7 292.6 175.8 292.6ZM170.9 235.7C172.2 234.4 174 233.7 175.8 233.7C179.6 233.7 182.7 236.8 182.7 240.6V260.5H168.8V240.6C168.9 238.7 169.6 237 170.9 235.7Z" fill="#25398F"/>
<path d="M132.7 299.2C134.9 299.2 136.7 297.4 136.7 295.2V40.7C136.7 38.5 134.9 36.7 132.7 36.7C130.5 36.7 128.7 38.5 128.7 40.7V295.2C128.7 297.4 130.5 299.2 132.7 299.2Z" fill="#CE2127"/>
<path d="M282 82.5C282.1 82.5 282.1 82.6 282.1 82.6C282.2 82.7 282.4 82.7 282.5 82.8C282.5 82.8 282.6 82.8 282.6 82.9C282.9 83 283.2 83.1 283.5 83.3C283.6 83.4 283.8 83.4 283.9 83.5C284.1 83.6 284.4 83.7 284.6 83.7C284.8 83.8 285 83.8 285.2 83.9C285.4 84 285.6 84 285.8 84.1C286 84.2 286.2 84.2 286.4 84.2C286.6 84.2 286.8 84.3 287 84.3C287.2 84.3 287.4 84.4 287.6 84.4C287.8 84.4 288 84.5 288.2 84.5C288.4 84.5 288.5 84.5 288.7 84.6C288.9 84.6 289.2 84.7 289.4 84.7C289.5 84.7 289.6 84.7 289.7 84.7C290.4 84.8 291.2 84.8 291.9 84.8C305.5 84.8 316.5 73.8 316.5 60.2C316.5 59.7 316.5 59.1 316.4 58.6C316.4 58.5 316.4 58.3 316.4 58.2C316.4 57.7 316.3 57.2 316.2 56.7V56.6C316.1 56.1 316 55.5 315.9 55C315.9 54.9 315.9 54.8 315.8 54.7C315.7 54.2 315.6 53.7 315.4 53.3C315.4 53.2 315.4 53.2 315.3 53.1C315.1 52.6 315 52.1 314.8 51.6C314.8 51.5 314.7 51.4 314.7 51.3C314.5 50.9 314.4 50.5 314.2 50.1C314.1 50 314.1 49.8 314 49.7C313.8 49.3 313.6 48.8 313.4 48.4C313.3 48.2 313.2 48 313.1 47.9C313 47.7 312.8 47.4 312.7 47.2C312.6 47 312.4 46.8 312.3 46.5C312.2 46.4 312.1 46.2 312 46.1C311.7 45.6 311.3 45.2 311 44.7C310.9 44.6 310.9 44.5 310.8 44.5C310.1 43.6 309.3 42.8 308.5 42.1L308.4 42C307.6 41.3 306.8 40.6 305.9 40C305.8 39.9 305.6 39.8 305.5 39.7C305.3 39.5 305 39.4 304.8 39.3C304.4 39.1 304 38.8 303.6 38.6C303.5 38.5 303.4 38.5 303.3 38.4C302.9 38.2 302.5 38 302 37.8C302 37.8 301.9 37.8 301.9 37.7C298.9 36.3 295.5 35.6 291.9 35.6C278.3 35.6 267.3 46.6 267.3 60.2C267.6 70.1 273.5 78.6 282 82.5ZM302.6 47.3C302.8 47.4 302.9 47.6 303.1 47.7C304 48.5 304.9 49.4 305.6 50.4C305.7 50.6 305.9 50.8 306 51C306.2 51.2 306.3 51.5 306.4 51.7C306.6 52 306.7 52.2 306.9 52.5C307 52.7 307.1 53 307.2 53.2C307.3 53.5 307.5 53.8 307.6 54.2C307.7 54.4 307.8 54.6 307.8 54.9C307.9 55.3 308 55.6 308.1 56C308.2 56.2 308.2 56.4 308.3 56.6C308.4 57 308.5 57.4 308.5 57.9C308.5 58.1 308.6 58.2 308.6 58.4C308.7 59 308.7 59.6 308.7 60.2C308.7 69.3 301.3 76.8 292.1 76.8C291.6 76.8 291 76.8 290.5 76.7C290.3 76.7 290.2 76.7 290 76.6C289.7 76.6 289.4 76.5 289.2 76.5L302.3 47.2C302.5 47.2 302.6 47.2 302.6 47.3ZM292.2 43.6C293.2 43.6 294.2 43.7 295.1 43.9L282 73.2C278.1 70.2 275.6 65.5 275.6 60.2C275.6 51 283 43.6 292.2 43.6Z" fill="#25398F"/>
<path d="M368.2 82.5C368.3 82.5 368.3 82.6 368.4 82.6C368.5 82.7 368.7 82.7 368.8 82.8C368.9 82.8 369 82.9 369 82.9C369.3 83 369.5 83.1 369.8 83.2C370 83.3 370.3 83.4 370.5 83.4C370.6 83.4 370.8 83.5 370.9 83.5C371.2 83.6 371.5 83.7 371.9 83.8C372 83.8 372.1 83.8 372.1 83.9C372.5 84 372.8 84.1 373.2 84.2C373.3 84.2 373.3 84.2 373.4 84.2C373.7 84.3 374.1 84.3 374.4 84.4C374.5 84.4 374.5 84.4 374.6 84.4C374.9 84.4 375.2 84.5 375.5 84.5C375.6 84.5 375.7 84.5 375.8 84.5C376 84.5 376.2 84.5 376.5 84.6C377.1 84.6 377.7 84.7 378.4 84.7C392 84.7 403 73.7 403 60.1C403 59.6 403 59 402.9 58.5C402.9 58.4 402.9 58.2 402.9 58.1C402.9 57.6 402.8 57.1 402.7 56.6V56.5C402.6 56 402.5 55.4 402.4 54.9C402.4 54.8 402.4 54.7 402.3 54.6C402.2 54.1 402.1 53.7 401.9 53.2C401.9 53.1 401.9 53.1 401.8 53C401.6 52.5 401.5 52 401.3 51.5C401.3 51.4 401.2 51.3 401.2 51.2C401.1 50.8 400.9 50.5 400.7 50.1C400.6 49.9 400.6 49.8 400.5 49.6C400.3 49.2 400.1 48.8 399.9 48.4C399.8 48.2 399.7 48 399.5 47.8C399.4 47.6 399.3 47.4 399.2 47.2C399 46.9 398.9 46.7 398.7 46.4L398.6 46.3C396.6 43.4 394.1 41 391.1 39.1C391.1 39.1 391 39.1 391 39C390.5 38.7 390 38.4 389.5 38.2C389.3 38.1 389 38 388.8 37.8C388.7 37.7 388.6 37.7 388.5 37.6H388.4C385.4 36.3 382 35.5 378.5 35.5C364.9 35.5 353.9 46.5 353.9 60.1C353.8 70.1 359.7 78.6 368.2 82.5ZM388.9 47.4C389 47.5 389 47.5 389.1 47.6C390.2 48.5 391.1 49.5 391.9 50.6C392 50.8 392.1 50.9 392.2 51.1C392.4 51.4 392.5 51.6 392.7 51.9C392.8 52.1 393 52.4 393.1 52.6C393.2 52.8 393.3 53.1 393.5 53.3C393.6 53.6 393.8 53.9 393.9 54.2C394 54.4 394.1 54.7 394.2 54.9C394.3 55.3 394.4 55.6 394.5 56C394.6 56.2 394.6 56.4 394.7 56.6C394.8 57 394.9 57.4 394.9 57.8C394.9 58 395 58.1 395 58.3C395.1 58.9 395.1 59.5 395.1 60.1C395.1 69.2 387.7 76.7 378.5 76.7C378 76.7 377.4 76.7 376.9 76.6C376.7 76.6 376.5 76.5 376.3 76.5C376 76.5 375.8 76.4 375.5 76.4L388.6 47.1C388.7 47.2 388.8 47.3 388.9 47.4ZM378.4 43.6C379.4 43.6 380.4 43.7 381.3 43.9L368.2 73.2C364.3 70.2 361.8 65.5 361.8 60.2C361.8 51 369.2 43.6 378.4 43.6Z" fill="#25398F"/>
<path d="M282 190.8L282.1 190.9C285.2 192.3 288.6 193 292.2 193C305.8 193 316.8 182 316.8 168.4C316.8 167.9 316.8 167.3 316.7 166.8C316.7 166.7 316.7 166.5 316.7 166.4C316.7 165.9 316.6 165.4 316.5 164.9V164.8C316.4 164.3 316.3 163.7 316.2 163.2C316.2 163.1 316.2 163 316.1 162.9C316 162.4 315.9 161.9 315.7 161.5C315.7 161.4 315.7 161.4 315.6 161.3C315.4 160.8 315.3 160.3 315.1 159.8C315.1 159.7 315 159.6 315 159.5C314.8 159.1 314.7 158.7 314.5 158.3C314.4 158.2 314.4 158 314.3 157.9C314.1 157.5 313.9 157 313.7 156.6C313.6 156.4 313.5 156.2 313.4 156.1C313.3 155.9 313.1 155.6 313 155.4C312.9 155.2 312.7 154.9 312.6 154.7C312.5 154.6 312.4 154.4 312.3 154.3C312 153.8 311.6 153.4 311.2 152.9C311.1 152.8 311.1 152.8 311 152.7C310.3 151.8 309.5 151 308.7 150.3C308.7 150.3 308.7 150.3 308.6 150.2C307.8 149.5 307 148.8 306.1 148.2C306 148.1 305.8 148 305.7 147.9C305.5 147.7 305.2 147.6 305 147.4C304.6 147.2 304.2 146.9 303.9 146.7C303.8 146.6 303.7 146.6 303.6 146.5C303.2 146.3 302.8 146.1 302.4 145.9C302.4 145.9 302.3 145.9 302.3 145.8C299.3 144.4 295.9 143.7 292.3 143.7C278.7 143.7 267.7 154.7 267.7 168.3C267.6 178.4 273.5 187 282 190.8ZM302.6 155.6C302.8 155.7 302.9 155.9 303 156C303.9 156.8 304.8 157.7 305.5 158.7C305.6 158.9 305.8 159.1 305.9 159.3C306.1 159.5 306.2 159.8 306.4 160C306.6 160.3 306.7 160.5 306.8 160.8C306.9 161 307 161.3 307.1 161.5C307.2 161.8 307.4 162.1 307.5 162.5C307.6 162.7 307.7 162.9 307.7 163.2C307.8 163.6 307.9 163.9 308 164.3C308.1 164.5 308.1 164.7 308.2 164.9C308.3 165.3 308.4 165.7 308.4 166.2C308.4 166.4 308.5 166.5 308.5 166.7C308.6 167.3 308.6 167.9 308.6 168.5C308.6 177.6 301.2 185.1 292 185.1C291.4 185.1 290.9 185.1 290.3 185C290.2 185 290.2 185 290.1 185C289.7 185 289.4 184.9 289 184.8L302.1 155.5C302.5 155.5 302.6 155.6 302.6 155.6ZM292.2 151.9C293.2 151.9 294.2 152 295.1 152.2L282 181.5C278.1 178.5 275.6 173.8 275.6 168.5C275.6 159.4 283 151.9 292.2 151.9Z" fill="#25398F"/>
<path d="M368.2 190.8L368.3 190.9C371.4 192.3 374.8 193 378.4 193C392 193 403 182 403 168.4C403 167.9 403 167.3 402.9 166.8C402.9 166.7 402.9 166.5 402.9 166.4C402.9 165.9 402.8 165.4 402.7 164.9V164.8C402.6 164.3 402.5 163.7 402.4 163.2C402.4 163.1 402.4 163 402.3 162.9C402.2 162.4 402.1 162 401.9 161.5C401.9 161.4 401.9 161.4 401.8 161.3C401.6 160.8 401.5 160.3 401.3 159.8C401.3 159.7 401.2 159.6 401.2 159.5C401.1 159.1 400.9 158.8 400.7 158.4C400.6 158.2 400.6 158.1 400.5 157.9C400.3 157.5 400.1 157.1 399.9 156.7C399.8 156.5 399.6 156.3 399.5 156C399.4 155.8 399.3 155.6 399.2 155.4C399 155.1 398.9 154.9 398.7 154.6C398.7 154.6 398.7 154.5 398.6 154.5C396.6 151.6 394.1 149.2 391 147.3C391 147.3 390.9 147.3 390.9 147.2C390.4 146.9 389.9 146.6 389.3 146.3C389.1 146.2 388.8 146.1 388.6 145.9C388.5 145.8 388.4 145.8 388.3 145.7H388.2C385.2 144.4 381.8 143.6 378.3 143.6C364.7 143.6 353.7 154.6 353.7 168.2C353.8 178.4 359.7 187 368.2 190.8ZM388.9 155.7C389 155.7 389 155.8 389.1 155.8C390.2 156.7 391.1 157.7 391.9 158.8C392 158.9 392.1 159.1 392.2 159.2C392.4 159.5 392.5 159.7 392.7 160C392.8 160.2 393 160.5 393.1 160.7C393.2 160.9 393.3 161.2 393.5 161.4C393.6 161.7 393.8 162 393.9 162.3C394 162.5 394.1 162.8 394.2 163C394.3 163.4 394.4 163.7 394.5 164.1C394.6 164.3 394.6 164.5 394.7 164.7C394.8 165.1 394.9 165.5 394.9 165.9C394.9 166.1 395 166.3 395 166.4C395.1 167 395.1 167.6 395.1 168.2C395.1 177.3 387.7 184.8 378.5 184.8C377.9 184.8 377.4 184.8 376.9 184.7C376.8 184.7 376.8 184.7 376.7 184.7C376.3 184.7 376 184.6 375.6 184.5L388.7 155.2C388.7 155.5 388.8 155.6 388.9 155.7ZM378.4 151.9C379.4 151.9 380.4 152 381.3 152.2L368.2 181.5C364.3 178.5 361.8 173.8 361.8 168.5C361.8 159.4 369.2 151.9 378.4 151.9Z" fill="#25398F"/>
<path d="M282 299.2L282.1 299.3C285.2 300.7 288.6 301.4 292.2 301.4C305.8 301.4 316.8 290.4 316.8 276.8C316.8 276.3 316.8 275.7 316.7 275.2C316.7 275.1 316.7 275 316.7 274.8C316.7 274.3 316.6 273.8 316.5 273.2C316.4 272.6 316.3 272 316.2 271.5C315.3 267.5 313.4 263.8 310.8 260.8C310.8 260.7 310.7 260.7 310.7 260.6C310.3 260.2 310 259.8 309.6 259.4C309.2 259 308.8 258.7 308.5 258.3C308.4 258.2 308.3 258.1 308.2 258.1C307.8 257.8 307.4 257.4 307 257.1C306.6 256.8 306.2 256.5 305.7 256.2C305.6 256.1 305.5 256.1 305.4 256C304.5 255.4 303.5 254.9 302.5 254.4C302.5 254.4 302.4 254.4 302.4 254.3C299.3 252.9 296 252.2 292.4 252.2C278.8 252.2 267.8 263.2 267.8 276.8C267.6 286.7 273.5 295.3 282 299.2ZM302.5 263.9C302.9 264.2 303.3 264.6 303.7 265L303.8 265.1C304.2 265.5 304.7 266 305 266.5C305.4 267 305.7 267.4 306 267.9C306.1 268 306.1 268.1 306.2 268.2C306.5 268.6 306.7 269 306.9 269.5C307 269.6 307 269.7 307.1 269.9C307.3 270.3 307.5 270.7 307.6 271.2C307.7 271.3 307.7 271.5 307.8 271.6C307.9 272 308.1 272.5 308.2 272.9C308.2 273.1 308.3 273.2 308.3 273.4C308.4 273.8 308.5 274.3 308.5 274.8C308.5 274.9 308.6 275.1 308.6 275.2C308.7 275.8 308.7 276.4 308.7 277C308.7 286.1 301.3 293.6 292.1 293.6C291.5 293.6 291 293.6 290.4 293.5C290.3 293.5 290.3 293.5 290.2 293.5C289.8 293.5 289.5 293.4 289.1 293.3L302.2 264C302.4 263.8 302.5 263.8 302.5 263.9ZM292.2 260.3C293.2 260.3 294.2 260.4 295.1 260.6L282 289.9C278.1 286.9 275.6 282.2 275.6 276.9C275.6 267.7 283 260.3 292.2 260.3Z" fill="#25398F"/>
<path d="M368.2 299.2L368.3 299.3C371.4 300.7 374.8 301.4 378.4 301.4C392 301.4 403 290.4 403 276.8C403 276.3 403 275.7 402.9 275.2C402.9 275.1 402.9 275 402.9 274.8C402.9 274.3 402.8 273.8 402.7 273.2C402.6 272.6 402.5 272.1 402.4 271.5C402.4 271.5 402.4 271.5 402.4 271.4C401.8 268.5 400.6 265.9 399.1 263.5C399.1 263.5 399.1 263.4 399 263.4C398.7 262.9 398.4 262.5 398 262C397.7 261.6 397.4 261.2 397 260.8C396.9 260.7 396.8 260.6 396.7 260.5C396.4 260.1 396 259.8 395.7 259.4C395.6 259.3 395.5 259.2 395.4 259.2C395.1 258.9 394.8 258.7 394.6 258.4C394.4 258.3 394.3 258.1 394.1 258C393.8 257.8 393.5 257.5 393.2 257.3C393 257.2 392.8 257 392.6 256.9C392.3 256.7 392 256.5 391.8 256.3C391.6 256.2 391.4 256.1 391.3 256C391 255.8 390.6 255.6 390.3 255.4C390.1 255.3 389.9 255.2 389.7 255.1C389.4 254.9 389 254.8 388.7 254.6C388.6 254.6 388.5 254.5 388.4 254.5H388.3C385.3 253.2 381.9 252.4 378.4 252.4C364.8 252.4 353.8 263.4 353.8 277C353.8 286.7 359.7 295.3 368.2 299.2ZM388.7 263.9C389 264.2 389.4 264.5 389.7 264.8C389.8 264.9 389.9 265 390 265.1C390.4 265.5 390.8 266 391.2 266.4C391.3 266.5 391.3 266.5 391.3 266.6C391.6 267 391.9 267.4 392.2 267.8C392.3 267.9 392.3 268 392.4 268.2C392.6 268.6 392.9 269 393.1 269.4C393.2 269.5 393.2 269.7 393.3 269.8C393.5 270.2 393.7 270.6 393.8 271C393.9 271.1 393.9 271.3 394 271.4C394.1 271.8 394.3 272.2 394.4 272.7C394.4 272.9 394.5 273 394.5 273.2C394.6 273.6 394.7 274.1 394.7 274.6C394.7 274.7 394.8 274.9 394.8 275C394.9 275.6 394.9 276.2 394.9 276.8C394.9 285.9 387.5 293.4 378.3 293.4C377.7 293.4 377.2 293.4 376.7 293.3C376.6 293.3 376.6 293.3 376.5 293.3C376.1 293.3 375.8 293.2 375.4 293.1L388.5 263.8C388.6 263.8 388.7 263.9 388.7 263.9ZM378.4 260.3C379.4 260.3 380.4 260.4 381.3 260.6L368.2 289.9C364.3 286.9 361.8 282.2 361.8 276.9C361.8 267.7 369.2 260.3 378.4 260.3Z" fill="#25398F"/>
<path d="M335.3 297C337.5 297 339.3 295.2 339.3 293V42.9C339.3 40.7 337.5 38.9 335.3 38.9C333.1 38.9 331.3 40.7 331.3 42.9V293C331.3 295.2 333.1 297 335.3 297Z" fill="#CE2127"/>
<path d="M464 328H415.5C420 323.3 422.7 317 422.7 310.1V25.9C422.7 11.6 411.1 0 396.8 0H273.8C259.5 0 247.8 11.6 247.8 25.9V310.1C247.8 317.1 250.6 323.4 255 328H212.9C217.4 323.3 220.1 317 220.1 310.1V25.9C220.1 11.6 208.5 0 194.1 0H71.1C56.8 0 45.1 11.6 45.1 25.9V310.1C45.1 317.1 47.9 323.4 52.3 328H4C1.8 328 0 329.8 0 332C0 334.2 1.8 336 4 336H464C466.2 336 468 334.2 468 332C468 329.8 466.2 328 464 328ZM255.8 25.9C255.8 16 263.9 8 273.8 8H396.8C406.7 8 414.7 16 414.7 25.9V310.1C414.7 320 406.7 328 396.8 328H273.8C263.9 328 255.8 320 255.8 310.1V25.9ZM53.3 25.9C53.3 16 61.4 8 71.3 8H194.3C204.2 8 212.3 16 212.3 25.9V310.1C212.3 320 204.2 328 194.3 328H71.3C61.4 328 53.3 320 53.3 310.1V25.9Z" fill="#25398F"/>
<path d="M109 320.9H154.6C156.8 320.9 158.6 319.1 158.6 316.9C158.6 314.7 156.8 312.9 154.6 312.9H109C106.8 312.9 105 314.7 105 316.9C105 319.1 106.8 320.9 109 320.9Z" fill="#CE2127"/>
<path d="M359 312.9H313.4C311.2 312.9 309.4 314.7 309.4 316.9C309.4 319.1 311.2 320.9 313.4 320.9H359C361.2 320.9 363 319.1 363 316.9C363 314.7 361.2 312.9 359 312.9Z" fill="#CE2127"/>
</svg>
