<svg width="81" height="81" viewBox="0 0 81 81" fill="none" xmlns="http://www.w3.org/2000/svg">
<path d="M19.199 28.178H26.682V35.66C26.682 36.213 27.13 36.66 27.682 36.66C28.234 36.66 28.682 36.213 28.682 35.66V28.178H36.164C36.716 28.178 37.164 27.731 37.164 27.178C37.164 26.625 36.716 26.178 36.164 26.178H28.682V18.696C28.682 18.143 28.234 17.696 27.682 17.696C27.13 17.696 26.682 18.143 26.682 18.696V26.178H19.199C18.647 26.178 18.199 26.625 18.199 27.178C18.199 27.731 18.647 28.178 19.199 28.178Z" fill="#CE2127"/>
<path d="M79.008 30H56.934V1C56.934 0.447 56.486 0 55.934 0H1C0.448 0 0 0.447 0 1V70.373C0 75.982 4.563 80.546 10.172 80.546H69.836C75.445 80.546 80.008 75.983 80.008 70.373V31C80.008 30.447 79.561 30 79.008 30ZM10.172 78.545C5.666 78.545 2 74.879 2 70.372V2H54.934V69.34C54.929 69.379 54.927 69.42 54.927 69.461C54.927 73.223 56.817 76.551 59.698 78.546L10.172 78.545ZM78.008 70.373C78.008 74.88 74.342 78.546 69.836 78.546H66.254C66.165 78.52 66.07 78.506 65.973 78.506C61.035 78.506 57.009 74.529 56.929 69.611C56.933 69.574 56.935 69.537 56.935 69.5V32H78.01V70.373H78.008Z" fill="#25398F"/>
<path d="M45.4999 54.221H10.6479C10.0959 54.221 9.64795 54.668 9.64795 55.221C9.64795 55.774 10.0959 56.221 10.6479 56.221H45.4999C46.0519 56.221 46.4999 55.774 46.4999 55.221C46.4999 54.668 46.0519 54.221 45.4999 54.221Z" fill="#25398F"/>
<path d="M45.4999 65.335H10.6479C10.0959 65.335 9.64795 65.782 9.64795 66.335C9.64795 66.888 10.0959 67.335 10.6479 67.335H45.4999C46.0519 67.335 46.4999 66.888 46.4999 66.335C46.4999 65.782 46.0519 65.335 45.4999 65.335Z" fill="#25398F"/>
<path d="M45.5 9.974H10.046C9.49402 9.974 9.04602 10.421 9.04602 10.974V43.939C9.04602 44.492 9.49402 44.939 10.046 44.939H45.5C46.052 44.939 46.5 44.492 46.5 43.939V10.974C46.5 10.421 46.052 9.974 45.5 9.974ZM44.5 42.939H11.046V11.974H44.5V42.939Z" fill="#25398F"/>
</svg>
