<svg width="303" height="416" viewBox="0 0 303 416" fill="none" xmlns="http://www.w3.org/2000/svg">
<path d="M297.639 415.748H4.725C2.116 415.748 0 413.633 0 411.023V51.969C0 49.36 2.115 47.244 4.725 47.244H61.418C64.027 47.244 66.142 49.359 66.142 51.969V85.04H236.221V51.969C236.221 49.36 238.336 47.244 240.946 47.244H297.639C300.248 47.244 302.363 49.359 302.363 51.969V411.024C302.363 413.633 300.248 415.748 297.639 415.748ZM9.45 406.299H292.915V56.693H245.671V89.764C245.671 92.373 243.556 94.489 240.946 94.489H61.418C58.809 94.489 56.693 92.374 56.693 89.764V56.693H9.449L9.45 406.299Z" fill="#25398F"/>
<path d="M240.946 94.488H61.418C58.809 94.488 56.693 92.373 56.693 89.763V33.071C56.693 30.462 58.808 28.347 61.418 28.347H114.587C118.834 11.93 133.894 0 151.182 0C168.469 0 183.531 11.929 187.777 28.347H240.946C243.555 28.347 245.671 30.462 245.671 33.071V89.764C245.67 92.373 243.555 94.488 240.946 94.488ZM66.142 85.04H236.221V37.795H183.911C181.559 37.795 179.566 36.066 179.234 33.739C177.253 19.892 165.193 9.449 151.182 9.449C137.171 9.449 125.111 19.892 123.129 33.74C122.796 36.067 120.803 37.796 118.452 37.796H66.142V85.04Z" fill="#25398F"/>
<path d="M259.843 188.977H118.111C115.502 188.977 113.386 186.861 113.386 184.252V127.559C113.386 124.95 115.502 122.834 118.111 122.834H259.843C262.452 122.834 264.568 124.95 264.568 127.559V184.252C264.568 186.861 262.453 188.977 259.843 188.977ZM122.835 179.527H255.119V132.284H122.835V179.527Z" fill="#25398F"/>
<path d="M61.418 179.527C58.809 179.527 56.693 177.412 56.693 174.803V137.008C56.693 134.399 58.808 132.284 61.418 132.284C64.027 132.284 66.142 134.399 66.142 137.008V174.803C66.142 177.412 64.027 179.527 61.418 179.527Z" fill="#CE2127"/>
<path d="M80.316 160.63H42.521C39.912 160.63 37.797 158.515 37.797 155.905C37.797 153.296 39.912 151.181 42.521 151.181H80.316C82.925 151.181 85.041 153.296 85.041 155.905C85.04 158.515 82.925 160.63 80.316 160.63Z" fill="#CE2127"/>
<path d="M259.843 226.771H80.316C77.707 226.771 75.592 224.657 75.592 222.046C75.592 219.437 77.707 217.322 80.316 217.322H259.843C262.452 217.322 264.568 219.436 264.568 222.046C264.568 224.657 262.453 226.771 259.843 226.771Z" fill="#25398F"/>
<path d="M42.52 226.771C41.272 226.771 40.054 226.27 39.175 225.382C38.296 224.503 37.796 223.293 37.796 222.046C37.796 220.808 38.296 219.589 39.175 218.701C40.063 217.823 41.272 217.322 42.52 217.322C43.767 217.322 44.986 217.823 45.865 218.701C46.743 219.589 47.244 220.807 47.244 222.046C47.244 223.293 46.743 224.503 45.865 225.382C44.987 226.27 43.767 226.771 42.52 226.771Z" fill="#CE2127"/>
<path d="M259.843 264.567H80.316C77.707 264.567 75.592 262.452 75.592 259.842C75.592 257.232 77.707 255.117 80.316 255.117H259.843C262.452 255.117 264.568 257.232 264.568 259.842C264.568 262.452 262.453 264.567 259.843 264.567Z" fill="#25398F"/>
<path d="M42.52 264.567C41.272 264.567 40.054 264.065 39.175 263.178C38.296 262.298 37.796 261.079 37.796 259.842C37.796 258.594 38.296 257.375 39.175 256.497C40.053 255.618 41.272 255.117 42.52 255.117C43.767 255.117 44.977 255.618 45.855 256.497C46.743 257.375 47.244 258.594 47.244 259.842C47.244 261.088 46.743 262.298 45.855 263.178C44.977 264.065 43.767 264.567 42.52 264.567Z" fill="#CE2127"/>
<path d="M259.843 302.362H80.316C77.707 302.362 75.592 300.247 75.592 297.637C75.592 295.027 77.707 292.912 80.316 292.912H259.843C262.452 292.912 264.568 295.027 264.568 297.637C264.568 300.247 262.453 302.362 259.843 302.362Z" fill="#25398F"/>
<path d="M42.52 302.362C41.272 302.362 40.054 301.861 39.175 300.982C38.296 300.093 37.796 298.875 37.796 297.637C37.796 296.39 38.296 295.18 39.175 294.292C40.053 293.413 41.272 292.912 42.52 292.912C43.767 292.912 44.977 293.413 45.865 294.292C46.743 295.18 47.244 296.39 47.244 297.637C47.244 298.874 46.743 300.093 45.865 300.982C44.977 301.861 43.767 302.362 42.52 302.362Z" fill="#CE2127"/>
<path d="M259.843 340.157H80.316C77.707 340.157 75.592 338.043 75.592 335.432C75.592 332.823 77.707 330.708 80.316 330.708H259.843C262.452 330.708 264.568 332.822 264.568 335.432C264.568 338.043 262.453 340.157 259.843 340.157Z" fill="#25398F"/>
<path d="M42.52 340.157C41.272 340.157 40.054 339.656 39.175 338.778C38.296 337.889 37.796 336.679 37.796 335.432C37.796 334.185 38.296 332.975 39.175 332.087C40.053 331.209 41.272 330.708 42.52 330.708C43.767 330.708 44.986 331.209 45.865 332.087C46.743 332.975 47.244 334.193 47.244 335.432C47.244 336.671 46.743 337.889 45.865 338.778C44.977 339.656 43.767 340.157 42.52 340.157Z" fill="#CE2127"/>
<path d="M259.843 377.953H80.316C77.707 377.953 75.592 375.838 75.592 373.228C75.592 370.618 77.707 368.503 80.316 368.503H259.843C262.452 368.503 264.568 370.618 264.568 373.228C264.568 375.838 262.453 377.953 259.843 377.953Z" fill="#25398F"/>
<path d="M42.52 377.953C41.272 377.953 40.063 377.452 39.175 376.564C38.296 375.684 37.796 374.474 37.796 373.228C37.796 371.98 38.296 370.771 39.175 369.883C40.063 369.004 41.272 368.503 42.52 368.503C43.767 368.503 44.977 369.004 45.855 369.883C46.743 370.761 47.244 371.98 47.244 373.228C47.244 374.474 46.743 375.684 45.855 376.564C44.977 377.452 43.767 377.953 42.52 377.953Z" fill="#CE2127"/>
</svg>
