<svg width="69" height="85" viewBox="0 0 69 85" fill="none" xmlns="http://www.w3.org/2000/svg">
<path d="M43.2555 0C42.1041 0 41.1617 0.942371 41.1617 2.09381V2.62506C39.6455 2.9228 38.4742 4.16857 38.4742 5.71887V15.4377V16.6252C38.4742 21.5338 41.7642 25.6697 46.3804 27.4062V27.6562C46.3804 28.8494 47.4384 29.7812 48.6304 29.7812H49.0366V30.6874C49.0366 31.5576 49.6282 32.2557 50.4116 32.5312V33.3749C50.4116 36.9761 47.3104 39.9062 43.3804 39.9062C42.1584 39.9062 41.256 39.4214 40.2866 38.7187C39.3173 38.016 38.3411 37.1041 37.0366 36.4374C34.8464 35.318 32.9508 34.9652 31.3804 35.1874C29.8099 35.4096 28.5806 36.2162 27.8492 37.2812C26.5334 39.197 26.7717 41.9511 28.6617 43.5312C28.1014 44.2316 27.7555 45.0739 27.7555 46.0001C27.7555 48.3494 29.8958 50.2812 32.5055 50.2812C35.1152 50.2812 37.2243 48.3494 37.2243 46.0001C37.2243 43.6508 35.1153 41.7501 32.5055 41.7501C31.5011 41.7501 30.5543 42.0173 29.7867 42.5001C28.3199 41.4214 28.1657 39.4843 29.0992 38.1251C29.5991 37.3972 30.3798 36.8243 31.568 36.6562C32.7562 36.4882 34.3609 36.7339 36.3492 37.7501C37.4151 38.2948 38.3407 39.1612 39.4117 39.9376C40.4827 40.714 41.7466 41.4062 43.3805 41.4062C48.0641 41.4062 51.9117 37.8364 51.9117 33.3751V32.5313C52.6951 32.2559 53.2867 31.5577 53.2867 30.6875V29.7812H53.6929C54.8849 29.7812 55.9429 28.8494 55.9429 27.6562V27.4062C60.5505 25.6695 63.8179 21.5335 63.8179 16.6252V15.4377V5.71899C63.8179 4.15859 62.655 2.91238 61.1304 2.62518V2.09393C61.1304 0.942533 60.1881 0.00012207 59.0366 0.00012207H58.7554C57.604 0.00012207 56.6304 0.942493 56.6304 2.09393V4.12512C56.6304 5.27652 57.604 6.21893 58.7554 6.21893H59.0366C60.1675 6.21893 61.0977 5.3111 61.1304 4.18774C61.8502 4.42711 62.3179 5.01912 62.3179 5.71893V15.4377V16.6252C62.3179 20.8307 59.5512 24.4492 55.5367 26.0002C55.1237 25.4359 54.4432 25.0627 53.6929 25.0627H48.6304C47.8802 25.0627 47.1997 25.4359 46.7866 26.0002C42.7633 24.4492 39.9741 20.8307 39.9741 16.6252V15.4377V5.71893C39.9741 5.03124 40.4545 4.46673 41.1616 4.21893C41.21 5.32833 42.1347 6.21893 43.2554 6.21893H43.5679C44.7193 6.21893 45.6617 5.27656 45.6617 4.12512V2.09393C45.6617 0.942533 44.7194 0.00012207 43.5679 0.00012207L43.2555 0ZM43.2555 1.5H43.568C43.9143 1.5 44.1617 1.74741 44.1617 2.09375V4.12494C44.1617 4.47128 43.9143 4.71869 43.568 4.71869H43.2555C42.9091 4.71869 42.6617 4.47128 42.6617 4.12494V2.09375C42.6617 1.74741 42.9091 1.5 43.2555 1.5ZM58.7555 1.5H59.0367C59.3831 1.5 59.6305 1.74741 59.6305 2.09375V4.12494C59.6305 4.47128 59.3831 4.71869 59.0367 4.71869H58.7555C58.4091 4.71869 58.1305 4.47128 58.1305 4.12494V2.09375C58.1305 1.74741 58.4091 1.5 58.7555 1.5ZM16.5995 8.84381C16.2613 8.91581 15.9982 9.24813 16.0057 9.59381V39.9378L7.09952 23.8438C7.00135 23.6769 6.84246 23.5545 6.65608 23.5021C6.4697 23.4497 6.27028 23.4713 6.09952 23.5626L0.412016 26.7188C0.357753 26.7337 0.30534 26.7546 0.255766 26.7812C0.125456 26.8954 0.0386901 27.0512 0.0102071 27.2221C-0.0182759 27.393 0.0132801 27.5685 0.0995159 27.7188L16.0055 56.4377V75.2817C16.0056 75.6744 16.3628 76.0317 16.7555 76.0317H33.4435C33.8397 76.0417 34.1935 75.678 34.1935 75.2817C34.1935 74.8855 33.8397 74.5261 33.4435 74.5317H17.5055V59.1567L19.6305 63.0005C19.6783 63.0849 19.742 63.1591 19.818 63.2192L26.568 68.7192C26.683 68.8124 26.8229 68.8696 26.9702 68.8834C27.1175 68.8973 27.2656 68.8671 27.3959 68.797C27.5262 68.7269 27.6328 68.6197 27.7024 68.4891C27.7719 68.3585 27.8013 68.2104 27.7868 68.0631L26.7243 59.3755C26.7083 59.2873 26.6765 59.2026 26.6306 59.1255L17.5056 42.6566V10.3445H36.3176C36.7138 10.3505 37.0676 9.99081 37.0676 9.59454C37.0676 9.19827 36.7138 8.83894 36.3176 8.84454H16.7556C16.7037 8.83954 16.6514 8.83881 16.5995 8.84381ZM65.0995 8.84381C64.7068 8.87651 64.3792 9.26361 64.412 9.65631C64.4447 10.049 64.8318 10.3765 65.2245 10.3438H67.2557V74.5308H65.1619C64.7656 74.5208 64.4119 74.8846 64.4119 75.2808C64.4119 75.6771 64.7656 76.0364 65.1619 76.0308H68.0057C68.3984 76.0308 68.7556 75.6735 68.7557 75.2808V9.59381C68.7556 9.20112 68.3984 8.84385 68.0057 8.84381H65.2245C65.1829 8.84081 65.1411 8.84081 65.0995 8.84381ZM25.7245 16.0313V19.3438H22.4433V21.6876H25.7245V25.0001H28.0995V21.6876H31.3807V19.3438H28.0995V16.0313H25.7245ZM6.16247 25.2501L8.03747 28.6251L3.66247 31.0626L1.78747 27.6564L6.16247 25.2501ZM48.6315 26.5626H53.694C54.1574 26.5626 54.444 26.8832 54.444 27.1876V27.6564C54.444 27.9608 54.1657 28.2814 53.694 28.2814H52.5378C52.3389 28.2814 52.1481 28.3604 52.0075 28.501C51.8668 28.6417 51.7878 28.8325 51.7878 29.0314V30.6876C51.7878 30.9238 51.5598 31.1563 51.1628 31.1563C50.7657 31.1563 50.5378 30.9238 50.5378 30.6876V29.0314C50.5377 28.8325 50.4587 28.6417 50.3181 28.501C50.1774 28.3604 49.9867 28.2814 49.7878 28.2814H48.6316C48.1599 28.2814 47.8816 27.9608 47.8816 27.6564V27.1876C47.8816 26.8832 48.1681 26.5626 48.6315 26.5626ZM8.75647 29.9376L24.7875 58.9376L23.2563 59.7813L7.22527 30.7813L8.75647 29.9376ZM5.91267 31.5314L21.9437 60.5004L20.4437 61.3441L4.38167 32.3751L5.91267 31.5314ZM32.5067 43.1564C34.262 43.1564 35.6629 44.42 35.6629 46.0002C35.6629 47.5804 34.2619 48.8439 32.5067 48.8439C30.7514 48.8439 29.3192 47.5804 29.3192 46.0002C29.3192 45.2484 29.6701 44.5709 30.1942 44.0627C30.307 44.0047 30.4048 43.918 30.4754 43.8127C31.0249 43.3988 31.7306 43.1564 32.5067 43.1564ZM44.6317 46.6877C43.6205 46.6877 42.7879 47.5203 42.7879 48.5314V54.0314C42.7879 54.8248 43.2974 55.5238 44.0067 55.7814V58.5002C44.0067 58.7245 43.9409 58.8455 43.5379 59.1252C43.1349 59.4049 42.4789 59.7165 41.7879 60.1252C40.406 60.9426 38.8191 62.3438 38.8191 65.0002V81.5002C38.8191 83.4455 40.4601 85.0002 42.4441 85.0002H51.1316H59.7878C61.7718 85.0002 63.444 83.4454 63.444 81.5002V65.0002C63.444 62.3438 61.8572 60.9426 60.4752 60.1252C59.7843 59.7165 59.1282 59.4049 58.7252 59.1252C58.3222 58.8455 58.2252 58.7245 58.2252 58.5002V55.7814C58.9493 55.5321 59.4752 54.8355 59.4752 54.0314V48.5314C59.4752 47.5203 58.6426 46.6877 57.6314 46.6877H44.6317ZM44.6317 48.1877H57.6317C57.8378 48.1877 57.9754 48.3253 57.9754 48.5314V54.0314C57.9754 54.2375 57.8378 54.3752 57.6317 54.3752H57.5379H44.6319C44.4258 54.3752 44.2882 54.2375 44.2882 54.0314V48.5314C44.2882 48.3253 44.4256 48.1877 44.6317 48.1877ZM45.5067 55.8752H56.7257V58.5002C56.7257 59.3373 57.3092 59.9464 57.8819 60.3439C58.4546 60.7415 59.0844 61.0456 59.6944 61.4064C60.7457 62.0283 61.6503 62.6999 61.8819 64.2189H40.3819C40.607 62.6999 41.4869 62.0283 42.5381 61.4064C43.148 61.0456 43.8091 60.7415 44.3819 60.3439C44.9546 59.9464 45.5069 59.3373 45.5069 58.5002L45.5067 55.8752ZM25.3507 60.3439L26.0694 66.4064L21.3506 62.5627L25.3507 60.3439ZM40.3197 65.7189H61.9447V80.2499H40.3197V65.7189ZM49.9759 68.6252V71.8439H46.7571V74.1564H49.9759V77.3752H52.2884V74.1564H55.5072V71.8439H52.2884V68.6252H49.9759ZM40.3509 81.7502H61.9129C61.783 82.7315 60.913 83.5002 59.7879 83.5002H51.1317H42.4442C41.3192 83.5002 40.4768 82.7315 40.3509 81.7502Z" fill="#25398F"/>
</svg>
