<svg width="96" height="74" viewBox="0 0 96 74" fill="none" xmlns="http://www.w3.org/2000/svg">
<path d="M19.5995 29.9H43.6995C45.2995 29.9 46.5995 28.6 46.5995 27V2.9C46.5995 1.3 45.2995 0 43.6995 0H19.5995C17.9995 0 16.6995 1.3 16.6995 2.9V27C16.6995 28.6 17.9995 29.9 19.5995 29.9ZM22.8995 12.9C22.8995 12.4 23.2995 12 23.7995 12H28.6995V7.1C28.6995 6.6 29.0995 6.2 29.5995 6.2H33.6995C34.1995 6.2 34.5995 6.6 34.5995 7.1V12H39.4995C39.9995 12 40.3995 12.4 40.3995 12.9V17C40.3995 17.5 39.9995 17.9 39.4995 17.9H34.5995V22.8C34.5995 23.3 34.1995 23.7 33.6995 23.7H29.5995C29.0995 23.7 28.6995 23.3 28.6995 22.8V17.9H23.7995C23.2995 17.9 22.8995 17.5 22.8995 17V12.9Z" fill="#CE2127"/>
<path d="M10.5994 55.6L27.9994 50.3L45.4994 57.2C46.9994 57.8 48.5994 58.1 50.0994 58.1C53.1994 58.1 56.1994 57 58.5994 54.8L71.8995 42.9C75.2995 39.8 75.7994 34.5 73.0994 30.8C71.5994 28.8 69.4994 27.5 66.9994 27.1C64.4994 26.8 62.0994 27.4 59.9994 29L44.0994 41.9L30.0994 38C28.9994 37.7 27.7994 37.7 26.7994 38.1L7.19945 45.4C4.49945 46.4 2.99945 49.4 3.99945 52.2C4.89945 54.9 7.79945 56.5 10.5994 55.6Z" fill="#25398F"/>
<path d="M91.2995 29.2C95.8995 25.1 96.2995 18 92.1995 13.4C88.0995 8.80001 80.9995 8.40001 76.3995 12.5C71.7995 16.6 71.3995 23.7 75.4995 28.3C79.5995 32.9 86.5995 33.3 91.2995 29.2Z" fill="#25398F"/>
<path d="M84.0994 40.1L63.5994 60.4C58.8994 65 51.8994 66.5 45.7994 64.1L29.0995 57.6C28.1995 57.2 27.0995 57.2 26.1995 57.5L2.89945 65.5C0.699451 66.3 -0.500549 68.7 0.199451 70.9C0.799451 72.7 2.49945 73.8 4.19945 73.8C4.69945 73.8 5.09945 73.7 5.59945 73.6L27.3995 66.2L42.6995 72.1C51.9995 75.7 62.4994 73.5 69.5994 66.5L90.0994 46.2C91.7994 44.5 91.7994 41.8 90.0994 40.2C88.4994 38.5 85.7994 38.5 84.0994 40.1Z" fill="#25398F"/>
</svg>
