<svg width="39" height="61" viewBox="0 0 39 61" fill="none" xmlns="http://www.w3.org/2000/svg">
<path d="M19.1 19.8C24.6 19.8 29 15.4 29 9.9C29 4.4 24.6 0 19.1 0C13.6 0 9.20001 4.4 9.20001 9.9C9.20001 15.4 13.6 19.8 19.1 19.8Z" fill="#25398F"/>
<path d="M15.1 46.1C15.1 41.8 18.6 38.3 22.9 38.3H28.3L34.6 27.3C32.1 24.5 28.5 23 24.7 23H13.5C6.1 23 0 29 0 36.5V38.9V54.2C0 57.7 2.9 60.6 6.4 60.6C9.9 60.6 12.8 57.7 12.8 54.2V52.6H18.5C16.4 51.1 15.1 48.7 15.1 46.1Z" fill="#25398F"/>
<path d="M36.3 29.5L23 52.6H28.5L38.2 35.7C38.1 33.5 37.4 31.4 36.3 29.5Z" fill="#CE2127"/>
<path d="M31.4 52.6H37.2C37.8 52.6 38.2 52.1 38.2 51.6V40.8L31.4 52.6Z" fill="#25398F"/>
<path d="M22.9 39.7C19.4 39.7 16.5 42.6 16.5 46.1C16.5 48.3 17.6 50.3 19.4 51.4L26.1 39.7H22.9Z" fill="#25398F"/>
</svg>
