<svg width="86" height="79" viewBox="0 0 86 79" fill="none" xmlns="http://www.w3.org/2000/svg">
<path d="M38.822 29.691V32.803L41.517 34.359L44.213 32.803V29.691L41.517 28.134L38.822 29.691Z" fill="#25398F"/>
<path d="M8.00104 41.29C7.65004 42.171 7.41904 43.142 7.32104 44.174L23.331 44.173C23.233 43.142 23.001 42.172 22.65 41.291L8.00104 41.29Z" fill="#CE2127"/>
<path d="M46.912 29.691V32.803L49.607 34.359L52.304 32.802V29.691L49.607 28.134L46.912 29.691Z" fill="#25398F"/>
<path d="M41.805 21.116C39.893 21.116 38.338 19.56 38.338 17.649V0H0.767C0.344 0 0 0.344 0 0.767V71.253V77.248C0 77.67 0.344 78.013 0.767 78.013H58.424C58.847 78.013 59.192 77.67 59.192 77.248V21.116H51.028H41.805ZM16.028 7.946H18.774V10.647H16.028V7.946ZM10.394 7.946H13.141V10.647H10.394V7.946ZM5.054 7.946H7.8V10.647H5.054V7.946ZM26.087 45.841C26.062 48.939 25.099 51.749 23.374 53.769C22.203 55.136 20.675 56.087 19.196 57.006C18.694 57.319 18.214 57.617 17.762 57.923C20.737 59.837 23.961 62.046 25.267 65.573C25.752 66.887 25.993 68.28 26.045 70.09L24.695 70.13H26.045V71.943H23.347V70.15C23.345 70.072 23.337 70.005 23.334 69.929L7.32 69.93C7.316 70.011 7.308 70.083 7.306 70.167V71.942H4.607V70.128C4.659 68.28 4.898 66.888 5.383 65.574C6.689 62.046 9.912 59.836 12.888 57.922C12.436 57.616 11.955 57.318 11.453 57.005C9.974 56.086 8.446 55.136 7.276 53.769C5.55 51.749 4.587 48.938 4.564 45.851L4.562 45.533L4.564 45.2C4.586 42.115 5.55 39.303 7.276 37.282C8.446 35.914 9.975 34.963 11.454 34.044C11.956 33.732 12.436 33.434 12.888 33.128C9.914 31.214 6.69 29.004 5.384 25.477C4.898 24.163 4.658 22.77 4.607 20.959L4.606 19.107H7.305L7.306 20.92C7.308 20.983 7.314 21.038 7.317 21.101L23.333 21.1C23.336 21.024 23.344 20.959 23.346 20.881L23.347 19.107L26.046 19.108L26.045 20.921C25.992 22.771 25.752 24.163 25.268 25.475C23.962 29.004 20.739 31.214 17.764 33.127C18.215 33.434 18.696 33.732 19.199 34.045C20.677 34.963 22.206 35.914 23.375 37.281C25.1 39.301 26.063 42.111 26.088 45.197V45.841H26.087ZM53.653 70.829H29.64V68.128H53.653V70.829ZM53.653 64.513H29.64V61.814H53.653V64.513ZM53.653 58.197H29.64V55.497H53.653V58.197ZM53.653 51.882H29.64V49.182H53.653V51.882ZM53.653 45.567H29.64V42.867H53.653V45.567ZM55.003 34.362L49.607 37.475L45.562 35.14L41.517 37.475L37.472 35.14L33.427 37.475L28.033 34.361V28.132L33.427 25.017L37.472 27.353L41.517 25.017L45.562 27.353L49.607 25.017L55.003 28.132V34.362Z" fill="#25398F"/>
<path d="M72.313 70.974C72.361 71.031 72.401 71.091 72.452 71.148C72.492 71.109 72.538 71.062 72.581 71.019C73.788 69.812 75.79 67.001 75.888 61.564H68.864C69.024 64.08 69.735 67.942 72.313 70.974Z" fill="#25398F"/>
<path d="M41.805 18.416H51.029H58.321L50.066 10.015L41.037 0.827026V17.649C41.037 18.071 41.382 18.416 41.805 18.416Z" fill="#25398F"/>
<path d="M12.879 54.712C13.536 55.12 14.215 55.542 14.847 55.996C15.003 56.108 15.163 56.22 15.326 56.331C15.49 56.22 15.65 56.107 15.807 55.995C16.437 55.542 17.116 55.121 17.771 54.713C18.917 54.001 20.08 53.257 20.959 52.377H9.69202C10.571 53.257 11.732 53.999 12.879 54.712Z" fill="#CE2127"/>
<path d="M22.734 24.5379C22.823 24.2989 22.898 24.053 22.966 23.799L7.68396 23.7999C7.75196 24.0529 7.82796 24.2989 7.91596 24.5379C8.16396 25.2099 8.52496 25.823 8.95596 26.401H21.693C22.126 25.823 22.486 25.2099 22.734 24.5379Z" fill="#CE2127"/>
<path d="M15.3251 59.567C15.1661 59.67 15.0061 59.772 14.8451 59.875C13.8131 60.537 12.7711 61.209 11.8051 61.928H18.8461C17.8821 61.21 16.8411 60.539 15.8101 59.879C15.6471 59.774 15.4851 59.67 15.3251 59.567Z" fill="#CE2127"/>
<path d="M17.7719 36.337C17.1149 35.929 16.4359 35.506 15.8039 35.052C15.6479 34.941 15.4879 34.828 15.3249 34.717C15.1629 34.829 15.0029 34.941 14.8459 35.053C14.2139 35.507 13.535 35.929 12.879 36.337C11.768 37.026 10.6419 37.746 9.77295 38.591H20.8769C20.0099 37.747 18.8839 37.028 17.7719 36.337Z" fill="#CE2127"/>
<path d="M15.325 31.483C15.484 31.38 15.644 31.2789 15.804 31.1749C16.847 30.5069 17.901 29.829 18.873 29.102L11.777 29.101C12.749 29.828 13.799 30.505 14.84 31.172C15.004 31.277 15.165 31.38 15.325 31.483Z" fill="#CE2127"/>
<path d="M7.91694 66.511C7.83094 66.743 7.75794 66.984 7.68994 67.23L22.9609 67.229C22.8939 66.983 22.8199 66.744 22.7339 66.511C22.4829 65.831 22.1189 65.2101 21.6809 64.6281H8.97094C8.53194 65.2101 8.16794 65.832 7.91694 66.511Z" fill="#CE2127"/>
<path d="M7.97004 49.677H22.681C23.014 48.818 23.236 47.876 23.33 46.874H7.32104C7.41504 47.876 7.63704 48.818 7.97004 49.677Z" fill="#CE2127"/>
<path d="M75.7941 58.9229L75.788 58.8119V10.2159H75.719H68.9611H68.8811L68.874 58.9579L68.873 58.9669H75.7961C75.7941 58.9509 75.7941 58.9379 75.7941 58.9229Z" fill="#25398F"/>
<path d="M30.733 29.691V32.803L33.428 34.359L36.123 32.803V29.691L33.428 28.134L30.733 29.691Z" fill="#25398F"/>
<path d="M72.151 74.499L71.447 73.837C71.3 73.698 71.176 73.552 71.037 73.411V76.714C71.037 77.431 71.619 78.012 72.336 78.012C73.053 78.012 73.633 77.431 73.633 76.714V73.552C73.279 73.837 73.035 73.986 72.989 74.013L72.151 74.499Z" fill="#CE2127"/>
<path d="M69.938 7.61896H74.733H75.718H75.787V6.78596V3.53696C75.787 1.63396 74.237 0.0849609 72.335 0.0849609C70.43 0.0849609 68.881 1.63396 68.881 3.53696V6.78396L68.88 7.61896H68.96H69.938Z" fill="#25398F"/>
<path d="M80.1461 7.61902H78.3831V10.216H80.1461C80.2451 10.216 82.5561 10.257 82.5561 13.9V26.82C82.5561 27.538 83.1381 28.119 83.8551 28.119C84.5721 28.119 85.1531 27.538 85.1531 26.82V13.9C85.1531 8.93202 81.8801 7.61902 80.1461 7.61902Z" fill="#25398F"/>
</svg>
