<svg width="695" height="778" viewBox="0 0 695 778" fill="none" xmlns="http://www.w3.org/2000/svg">
<path fill-rule="evenodd" clip-rule="evenodd" d="M285.29 466.767H408.72C587.8 466.767 694.02 607.787 694.02 777.707H0C0 607.787 106.22 466.767 285.29 466.767ZM240.45 394.587C154.38 390.547 81.66 370.827 81.66 296.697C81.66 -99.6735 612.35 -98.1235 612.35 296.697C612.35 370.867 539.56 390.547 453.41 394.597C506.11 337.807 531.07 266.087 522.09 188.807C471.82 202.117 425.46 206.767 374.84 185.897C301.81 155.787 300.59 104.867 287.78 40.5465C266.4 120.267 268.03 195.697 169.23 208.557C168.81 277.427 193.71 343.907 240.45 394.587ZM503.89 223.627C503.09 298.867 443.75 410.477 364.03 425.247C358.41 426.267 352.71 426.807 346.99 426.807C259.85 426.807 196.02 309.057 190.53 232.997L190.1 227.007L196.01 225.837C242.71 216.557 268.23 191.027 281.83 145.887L286.37 130.797L294.25 144.437C333.21 211.917 424.23 230.347 495.83 216.867L503.98 215.327L503.89 223.627ZM485.55 574.867H532.07V610.847H568.05V657.367H532.07V693.367H485.55V657.367H449.57V610.847H485.55V574.867Z" fill="#25398F"/>
</svg>
