<svg width="426" height="453" viewBox="0 0 426 453" fill="none" xmlns="http://www.w3.org/2000/svg">
<path d="M145.6 382.9V423.4H174V382.9C174 380.9 175.6 379.3 177.6 379.3H218.1V351H177.6C175.6 351 174 349.4 174 347.4V306.9H145.7V347.4C145.7 349.4 144.1 351 142.1 351H101.6V379.3H142C144 379.3 145.6 380.9 145.6 382.9Z" fill="#CE2127"/>
<path d="M20.5 452.4H299.1V277.9H20.5V452.4ZM94.4 347.4C94.4 345.4 96 343.8 98 343.8H138.5V303.3C138.5 301.3 140.1 299.7 142.1 299.7H177.6C179.6 299.7 181.2 301.3 181.2 303.3V343.8H221.7C223.7 343.8 225.3 345.4 225.3 347.4V382.9C225.3 384.9 223.7 386.5 221.7 386.5H181.2V427C181.2 429 179.6 430.6 177.6 430.6H142C140 430.6 138.4 429 138.4 427V386.5H97.9C95.9 386.5 94.3 384.9 94.3 382.9L94.4 347.4Z" fill="#25398F"/>
<path d="M159.8 98.9C186 98.9 207.4 77.6 207.4 51.4C207.4 25.2 186 3.80005 159.8 3.80005C133.6 3.80005 112.2 25.1 112.2 51.3C112.2 77.5 133.6 98.9 159.8 98.9Z" fill="#25398F"/>
<path d="M95.8 180.8C95.8 178.8 97.4 177.2 99.4 177.2C101.4 177.2 103 178.8 103 180.8V228.3H216.5V180.8C216.5 178.8 218.1 177.2 220.1 177.2C222.1 177.2 223.7 178.8 223.7 180.8V228.3H249.3V174C249.3 144 224.9 119.7 194.9 119.7H194.7L162.9 174.8C162.3 175.9 161.1 176.6 159.8 176.6C158.5 176.6 157.3 175.9 156.7 174.8L124.9 119.7H124.7C94.7 119.7 70.3 144.1 70.3 174V228.3H95.9L95.8 180.8Z" fill="#25398F"/>
<path d="M66.7 235.5H0V270.7H16.9H302.7H319.6V235.5H253H66.7Z" fill="#25398F"/>
<path d="M419.6 0H273.5C270 0 267.1 2.9 267.1 6.5V101.2C267.1 104.7 270 107.6 273.5 107.6H288.8C290.7 107.6 292.2 109 292.4 110.9L292.6 113.3L293.8 130.9L327.4 108.2C328 107.8 328.7 107.6 329.4 107.6H419.6C423.1 107.6 426 104.7 426 101.2V6.4C426 2.9 423.1 0 419.6 0ZM353.7 95.2H292.4C290.4 95.2 288.8 93.6 288.8 91.6C288.8 89.6 290.4 88 292.4 88H353.7C355.7 88 357.3 89.6 357.3 91.6C357.3 93.6 355.7 95.2 353.7 95.2ZM385.5 70.7H292.4C290.4 70.7 288.8 69.1 288.8 67.1C288.8 65.1 290.4 63.5 292.4 63.5H385.5C387.5 63.5 389.1 65.1 389.1 67.1C389.1 69.1 387.5 70.7 385.5 70.7ZM288.8 42.6C288.8 40.6 290.4 39 292.4 39H374.3C376.3 39 377.9 40.6 377.9 42.6C377.9 44.6 376.3 46.2 374.3 46.2H292.4C290.5 46.2 288.8 44.6 288.8 42.6ZM401.7 21.7H292.4C290.4 21.7 288.8 20.1 288.8 18.1C288.8 16.1 290.4 14.5 292.4 14.5H401.7C403.7 14.5 405.3 16.1 405.3 18.1C405.3 20.1 403.7 21.7 401.7 21.7Z" fill="#25398F"/>
</svg>
