<svg width="419" height="388" viewBox="0 0 419 388" fill="none" xmlns="http://www.w3.org/2000/svg">
<path d="M314 128H4C1.791 128 0 126.209 0 124C0 121.791 1.791 120 4 120H314C316.209 120 318 121.791 318 124C318 126.209 316.209 128 314 128Z" fill="#25398F"/>
<path d="M369 388H49C21.981 388 0 366.019 0 339V89C0 61.981 21.981 40 49 40H74C76.209 40 78 41.791 78 44V59C78 70.58 87.42 80 99 80C110.58 80 120 70.58 120 59V44C120 41.791 121.791 40 124 40H294C296.209 40 298 41.791 298 44V59C298 70.58 307.421 80 319 80C330.579 80 340 70.58 340 59V44C340 41.791 341.791 40 344 40H369C396.019 40 418 61.981 418 89V339C418 366.019 396.019 388 369 388ZM49 48C26.393 48 8 66.393 8 89V339C8 361.607 26.393 380 49 380H369C391.607 380 410 361.607 410 339V89C410 66.393 391.607 48 369 48H348V59C348 74.991 334.99 88 319 88C303.01 88 290 74.991 290 59V48H128V59C128 74.991 114.991 88 99 88C83.009 88 70 74.991 70 59V48H49Z" fill="#25398F"/>
<path d="M99 88C83.009 88 70 74.991 70 59V29C70 13.009 83.009 0 99 0C114.991 0 128 13.009 128 29V59C128 74.991 114.991 88 99 88ZM99 8C87.42 8 78 17.42 78 29V59C78 70.58 87.42 80 99 80C110.58 80 120 70.58 120 59V29C120 17.42 110.58 8 99 8Z" fill="#25398F"/>
<path d="M319 88C303.01 88 290 74.991 290 59V29C290 13.009 303.01 0 319 0C334.99 0 348 13.009 348 29V59C348 74.991 334.99 88 319 88ZM319 8C307.421 8 298 17.42 298 29V59C298 70.58 307.421 80 319 80C330.579 80 340 70.58 340 59V29C340 17.42 330.579 8 319 8Z" fill="#25398F"/>
<path d="M64 184H44V204H64V184Z" fill="#25398F"/>
<path d="M104 184H84V204H104V184Z" fill="#25398F"/>
<path d="M144 184H124V204H144V184Z" fill="#25398F"/>
<path d="M184 184H164V204H184V184Z" fill="#25398F"/>
<path d="M224 184H204V204H224V184Z" fill="#25398F"/>
<path d="M264 184H244V204H264V184Z" fill="#25398F"/>
<path d="M64 224H44V244H64V224Z" fill="#25398F"/>
<path d="M104 224H84V244H104V224Z" fill="#25398F"/>
<path d="M144 224H124V244H144V224Z" fill="#25398F"/>
<path d="M184 224H164V244H184V224Z" fill="#25398F"/>
<path d="M224 224H204V244H224V224Z" fill="#25398F"/>
<path d="M64 264H44V284H64V264Z" fill="#25398F"/>
<path d="M104 264H84V284H104V264Z" fill="#25398F"/>
<path d="M144 264H124V284H144V264Z" fill="#25398F"/>
<path d="M184 264H164V284H184V264Z" fill="#25398F"/>
<path d="M64 304H44V324H64V304Z" fill="#25398F"/>
<path d="M104 304H84V324H104V304Z" fill="#25398F"/>
<path d="M144 304H124V324H144V304Z" fill="#25398F"/>
<path d="M344 348H314C311.791 348 310 346.209 310 344V318H284C281.791 318 280 316.209 280 314V284C280 281.791 281.791 280 284 280H310V254C310 251.791 311.791 250 314 250H344C346.209 250 348 251.791 348 254V280H374C376.209 280 378 281.791 378 284V314C378 316.209 376.209 318 374 318H348V344C348 346.209 346.209 348 344 348ZM318 340H340V314C340 311.791 341.791 310 344 310H370V288H344C341.791 288 340 286.209 340 284V258H318V284C318 286.209 316.209 288 314 288H288V310H314C316.209 310 318 311.791 318 314V340Z" fill="#CE2127"/>
<path d="M283.996 388C283.231 388 282.458 387.781 281.775 387.324C255.617 369.814 240 340.592 240 309.154C240 257.322 282.168 215.154 334 215.154C369.313 215.154 401.329 234.656 417.556 266.05C418.57 268.013 417.801 270.426 415.839 271.441C413.874 272.451 411.463 271.686 410.448 269.724C395.601 240.998 366.308 223.155 334 223.155C286.579 223.155 248 261.734 248 309.155C248 337.918 262.29 364.655 286.225 380.676C288.061 381.905 288.553 384.39 287.325 386.225C286.553 387.378 285.286 388 283.996 388Z" fill="#25398F"/>
</svg>
